<?xml version="1.0" encoding="us-ascii" standalone="no"?><svg xmlns="http://www.w3.org/2000/svg" xmlns:xlink="http://www.w3.org/1999/xlink" contentStyleType="text/css" height="908px" preserveAspectRatio="none" style="width:1426px;height:908px;background:#FFFFFF;" version="1.1" viewBox="0 0 1426 908" width="1426px" zoomAndPan="magnify"><defs/><g><text fill="#000000" font-family="sans-serif" font-size="14" font-weight="bold" lengthAdjust="spacing" textLength="252" x="580.25" y="22.9951">&#1050;&#1083;&#1072;&#1089;&#1089;&#1086;&#1074;&#1072;&#1103; &#1076;&#1080;&#1072;&#1075;&#1088;&#1072;&#1084;&#1084;&#1072; IT News</text><!--class Article--><g id="elem_Article"><rect codeLine="3" fill="#F1F1F1" height="129.4844" id="Article" rx="2.5" ry="2.5" style="stroke:#181818;stroke-width:0.5;" width="154" x="791.5" y="772.2969"/><ellipse cx="840.25" cy="788.2969" fill="#ADD1B2" rx="11" ry="11" style="stroke:#181818;stroke-width:1.0;"/><path d="M842.5938,783.9688 C841.6563,783.5313 841.0625,783.3906 840.1875,783.3906 C837.5625,783.3906 835.5625,785.4688 835.5625,788.1875 L835.5625,789.3125 C835.5625,791.8906 837.6719,793.7813 840.5625,793.7813 C841.7813,793.7813 842.9375,793.4844 843.6875,792.9375 C844.2656,792.5313 844.5938,792.0781 844.5938,791.6875 C844.5938,791.2344 844.2031,790.8438 843.7344,790.8438 C843.5156,790.8438 843.3125,790.9219 843.125,791.1094 C842.6719,791.5938 842.6719,791.5938 842.4844,791.6875 C842.0625,791.9531 841.375,792.0781 840.6094,792.0781 C838.5625,792.0781 837.2656,790.9844 837.2656,789.2813 L837.2656,788.1875 C837.2656,786.4063 838.5156,785.0938 840.25,785.0938 C840.8281,785.0938 841.4375,785.25 841.9063,785.5 C842.3906,785.7813 842.5625,786 842.6563,786.4063 C842.7188,786.8125 842.75,786.9375 842.8906,787.0625 C843.0313,787.2031 843.2656,787.3125 843.4844,787.3125 C843.75,787.3125 844.0156,787.1719 844.1875,786.9531 C844.2969,786.7969 844.3281,786.6094 844.3281,786.1875 L844.3281,784.7656 C844.3281,784.3281 844.3125,784.2031 844.2188,784.0469 C844.0625,783.7813 843.7813,783.6406 843.4844,783.6406 C843.1875,783.6406 842.9844,783.7344 842.7656,784.0469 L842.5938,783.9688 Z " fill="#000000"/><text fill="#000000" font-family="sans-serif" font-size="14" lengthAdjust="spacing" textLength="48" x="860.75" y="793.1436">Article</text><line style="stroke:#181818;stroke-width:0.5;" x1="792.5" x2="944.5" y1="804.2969" y2="804.2969"/><rect fill="none" height="6" style="stroke:#C82930;stroke-width:1.0;" width="6" x="799.5" y="814.9453"/><text fill="#000000" font-family="sans-serif" font-size="14" lengthAdjust="spacing" textLength="84" x="811.5" y="821.292">title: String</text><rect fill="none" height="6" style="stroke:#C82930;stroke-width:1.0;" width="6" x="799.5" y="831.2422"/><text fill="#000000" font-family="sans-serif" font-size="14" lengthAdjust="spacing" textLength="100" x="811.5" y="837.5889">author: String</text><rect fill="none" height="6" style="stroke:#C82930;stroke-width:1.0;" width="6" x="799.5" y="847.5391"/><text fill="#000000" font-family="sans-serif" font-size="14" lengthAdjust="spacing" textLength="117" x="811.5" y="853.8857">postHref: String</text><rect fill="none" height="6" style="stroke:#C82930;stroke-width:1.0;" width="6" x="799.5" y="863.8359"/><text fill="#000000" font-family="sans-serif" font-size="14" lengthAdjust="spacing" textLength="89" x="811.5" y="870.1826">body: String</text><rect fill="none" height="6" style="stroke:#C82930;stroke-width:1.0;" width="6" x="799.5" y="880.1328"/><text fill="#000000" font-family="sans-serif" font-size="14" lengthAdjust="spacing" textLength="128" x="811.5" y="886.4795">imageHref: String</text><line style="stroke:#181818;stroke-width:0.5;" x1="792.5" x2="944.5" y1="893.7813" y2="893.7813"/></g><!--class BaseParser--><g id="elem_BaseParser"><rect codeLine="11" fill="#F1F1F1" height="113.1875" id="BaseParser" rx="2.5" ry="2.5" style="stroke:#181818;stroke-width:0.5;" width="298" x="820.5" y="218.2969"/><ellipse cx="925.75" cy="234.2969" fill="#ADD1B2" rx="11" ry="11" style="stroke:#181818;stroke-width:1.0;"/><path d="M928.0938,229.9688 C927.1563,229.5313 926.5625,229.3906 925.6875,229.3906 C923.0625,229.3906 921.0625,231.4688 921.0625,234.1875 L921.0625,235.3125 C921.0625,237.8906 923.1719,239.7813 926.0625,239.7813 C927.2813,239.7813 928.4375,239.4844 929.1875,238.9375 C929.7656,238.5313 930.0938,238.0781 930.0938,237.6875 C930.0938,237.2344 929.7031,236.8438 929.2344,236.8438 C929.0156,236.8438 928.8125,236.9219 928.625,237.1094 C928.1719,237.5938 928.1719,237.5938 927.9844,237.6875 C927.5625,237.9531 926.875,238.0781 926.1094,238.0781 C924.0625,238.0781 922.7656,236.9844 922.7656,235.2813 L922.7656,234.1875 C922.7656,232.4063 924.0156,231.0938 925.75,231.0938 C926.3281,231.0938 926.9375,231.25 927.4063,231.5 C927.8906,231.7813 928.0625,232 928.1563,232.4063 C928.2188,232.8125 928.25,232.9375 928.3906,233.0625 C928.5313,233.2031 928.7656,233.3125 928.9844,233.3125 C929.25,233.3125 929.5156,233.1719 929.6875,232.9531 C929.7969,232.7969 929.8281,232.6094 929.8281,232.1875 L929.8281,230.7656 C929.8281,230.3281 929.8125,230.2031 929.7188,230.0469 C929.5625,229.7813 929.2813,229.6406 928.9844,229.6406 C928.6875,229.6406 928.4844,229.7344 928.2656,230.0469 L928.0938,229.9688 Z " fill="#000000"/><text fill="#000000" font-family="sans-serif" font-size="14" lengthAdjust="spacing" textLength="79" x="946.25" y="239.1436">BaseParser</text><line style="stroke:#181818;stroke-width:0.5;" x1="821.5" x2="1117.5" y1="250.2969" y2="250.2969"/><rect fill="none" height="6" style="stroke:#C82930;stroke-width:1.0;" width="6" x="828.5" y="260.9453"/><text fill="#000000" font-family="sans-serif" font-size="14" lengthAdjust="spacing" textLength="71" x="840.5" y="267.292">url: String</text><line style="stroke:#181818;stroke-width:0.5;" x1="821.5" x2="1117.5" y1="274.5938" y2="274.5938"/><ellipse cx="831.5" cy="288.2422" fill="#84BE84" rx="3" ry="3" style="stroke:#038048;stroke-width:1.0;"/><text fill="#000000" font-family="sans-serif" font-size="14" lengthAdjust="spacing" textLength="147" x="840.5" y="291.5889">_fetch_html(): bytes</text><ellipse cx="831.5" cy="304.5391" fill="#84BE84" rx="3" ry="3" style="stroke:#038048;stroke-width:1.0;"/><text fill="#000000" font-family="sans-serif" font-size="14" lengthAdjust="spacing" textLength="272" x="840.5" y="307.8857">_send_data_to_server(data: Any): void</text><ellipse cx="831.5" cy="320.8359" fill="#84BE84" rx="3" ry="3" style="stroke:#038048;stroke-width:1.0;"/><text fill="#000000" font-family="sans-serif" font-size="14" lengthAdjust="spacing" textLength="159" x="840.5" y="324.1826">parse(): BeautifulSoup</text></g><!--class Parser--><g id="elem_Parser"><rect codeLine="18" fill="#F1F1F1" height="96.8906" id="Parser" rx="2.5" ry="2.5" style="stroke:#181818;stroke-width:0.5;" width="365" x="787" y="44.2969"/><ellipse cx="942.75" cy="60.2969" fill="#ADD1B2" rx="11" ry="11" style="stroke:#181818;stroke-width:1.0;"/><path d="M945.0938,55.9688 C944.1563,55.5313 943.5625,55.3906 942.6875,55.3906 C940.0625,55.3906 938.0625,57.4688 938.0625,60.1875 L938.0625,61.3125 C938.0625,63.8906 940.1719,65.7813 943.0625,65.7813 C944.2813,65.7813 945.4375,65.4844 946.1875,64.9375 C946.7656,64.5313 947.0938,64.0781 947.0938,63.6875 C947.0938,63.2344 946.7031,62.8438 946.2344,62.8438 C946.0156,62.8438 945.8125,62.9219 945.625,63.1094 C945.1719,63.5938 945.1719,63.5938 944.9844,63.6875 C944.5625,63.9531 943.875,64.0781 943.1094,64.0781 C941.0625,64.0781 939.7656,62.9844 939.7656,61.2813 L939.7656,60.1875 C939.7656,58.4063 941.0156,57.0938 942.75,57.0938 C943.3281,57.0938 943.9375,57.25 944.4063,57.5 C944.8906,57.7813 945.0625,58 945.1563,58.4063 C945.2188,58.8125 945.25,58.9375 945.3906,59.0625 C945.5313,59.2031 945.7656,59.3125 945.9844,59.3125 C946.25,59.3125 946.5156,59.1719 946.6875,58.9531 C946.7969,58.7969 946.8281,58.6094 946.8281,58.1875 L946.8281,56.7656 C946.8281,56.3281 946.8125,56.2031 946.7188,56.0469 C946.5625,55.7813 946.2813,55.6406 945.9844,55.6406 C945.6875,55.6406 945.4844,55.7344 945.2656,56.0469 L945.0938,55.9688 Z " fill="#000000"/><text fill="#000000" font-family="sans-serif" font-size="14" lengthAdjust="spacing" textLength="45" x="963.25" y="65.1436">Parser</text><line style="stroke:#181818;stroke-width:0.5;" x1="788" x2="1151" y1="76.2969" y2="76.2969"/><line style="stroke:#181818;stroke-width:0.5;" x1="788" x2="1151" y1="84.2969" y2="84.2969"/><ellipse cx="798" cy="97.9453" fill="#84BE84" rx="3" ry="3" style="stroke:#038048;stroke-width:1.0;"/><text fill="#000000" font-family="sans-serif" font-size="14" lengthAdjust="spacing" textLength="339" x="807" y="101.292">periodicallyReadArticleListPage(): List&lt;String&gt;</text><ellipse cx="798" cy="114.2422" fill="#84BE84" rx="3" ry="3" style="stroke:#038048;stroke-width:1.0;"/><text fill="#000000" font-family="sans-serif" font-size="14" lengthAdjust="spacing" textLength="309" x="807" y="117.5889">checkArticleExistence(url: String): boolean</text><ellipse cx="798" cy="130.5391" fill="#84BE84" rx="3" ry="3" style="stroke:#038048;stroke-width:1.0;"/><text fill="#000000" font-family="sans-serif" font-size="14" lengthAdjust="spacing" textLength="226" x="807" y="133.8857">parseArticle(url: String): Article</text></g><!--class FlaskAPI--><g id="elem_FlaskAPI"><rect codeLine="24" fill="#F1F1F1" height="129.4844" id="FlaskAPI" rx="2.5" ry="2.5" style="stroke:#181818;stroke-width:0.5;" width="370" x="334.5" y="408.2969"/><ellipse cx="485.75" cy="424.2969" fill="#ADD1B2" rx="11" ry="11" style="stroke:#181818;stroke-width:1.0;"/><path d="M488.0938,419.9688 C487.1563,419.5313 486.5625,419.3906 485.6875,419.3906 C483.0625,419.3906 481.0625,421.4688 481.0625,424.1875 L481.0625,425.3125 C481.0625,427.8906 483.1719,429.7813 486.0625,429.7813 C487.2813,429.7813 488.4375,429.4844 489.1875,428.9375 C489.7656,428.5313 490.0938,428.0781 490.0938,427.6875 C490.0938,427.2344 489.7031,426.8438 489.2344,426.8438 C489.0156,426.8438 488.8125,426.9219 488.625,427.1094 C488.1719,427.5938 488.1719,427.5938 487.9844,427.6875 C487.5625,427.9531 486.875,428.0781 486.1094,428.0781 C484.0625,428.0781 482.7656,426.9844 482.7656,425.2813 L482.7656,424.1875 C482.7656,422.4063 484.0156,421.0938 485.75,421.0938 C486.3281,421.0938 486.9375,421.25 487.4063,421.5 C487.8906,421.7813 488.0625,422 488.1563,422.4063 C488.2188,422.8125 488.25,422.9375 488.3906,423.0625 C488.5313,423.2031 488.7656,423.3125 488.9844,423.3125 C489.25,423.3125 489.5156,423.1719 489.6875,422.9531 C489.7969,422.7969 489.8281,422.6094 489.8281,422.1875 L489.8281,420.7656 C489.8281,420.3281 489.8125,420.2031 489.7188,420.0469 C489.5625,419.7813 489.2813,419.6406 488.9844,419.6406 C488.6875,419.6406 488.4844,419.7344 488.2656,420.0469 L488.0938,419.9688 Z " fill="#000000"/><text fill="#000000" font-family="sans-serif" font-size="14" lengthAdjust="spacing" textLength="59" x="506.25" y="429.1436">FlaskAPI</text><line style="stroke:#181818;stroke-width:0.5;" x1="335.5" x2="703.5" y1="440.2969" y2="440.2969"/><rect fill="none" height="6" style="stroke:#C82930;stroke-width:1.0;" width="6" x="342.5" y="450.9453"/><text fill="#000000" font-family="sans-serif" font-size="14" lengthAdjust="spacing" textLength="219" x="354.5" y="457.292">database: PostgresqlDatabase</text><line style="stroke:#181818;stroke-width:0.5;" x1="335.5" x2="703.5" y1="464.5938" y2="464.5938"/><ellipse cx="345.5" cy="478.2422" fill="#84BE84" rx="3" ry="3" style="stroke:#038048;stroke-width:1.0;"/><text fill="#000000" font-family="sans-serif" font-size="14" lengthAdjust="spacing" textLength="236" x="354.5" y="481.5889">saveArticle(article: Article): JSON</text><ellipse cx="345.5" cy="494.5391" fill="#84BE84" rx="3" ry="3" style="stroke:#038048;stroke-width:1.0;"/><text fill="#000000" font-family="sans-serif" font-size="14" lengthAdjust="spacing" textLength="344" x="354.5" y="497.8857">generateSummary(articles: List&lt;Article&gt;): JSON</text><ellipse cx="345.5" cy="510.8359" fill="#84BE84" rx="3" ry="3" style="stroke:#038048;stroke-width:1.0;"/><text fill="#000000" font-family="sans-serif" font-size="14" lengthAdjust="spacing" textLength="343" x="354.5" y="514.1826">categorizeArticles(articles: List&lt;Article&gt;): JSON</text><ellipse cx="345.5" cy="527.1328" fill="#84BE84" rx="3" ry="3" style="stroke:#038048;stroke-width:1.0;"/><text fill="#000000" font-family="sans-serif" font-size="14" lengthAdjust="spacing" textLength="337" x="354.5" y="530.4795">processArticleWithAI(articleText: String): JSON</text></g><!--class AI--><g id="elem_AI"><rect codeLine="32" fill="#F1F1F1" height="64.2969" id="AI" rx="2.5" ry="2.5" style="stroke:#181818;stroke-width:0.5;" width="267" x="7" y="622.7969"/><ellipse cx="129.25" cy="638.7969" fill="#ADD1B2" rx="11" ry="11" style="stroke:#181818;stroke-width:1.0;"/><path d="M131.5938,634.4688 C130.6563,634.0313 130.0625,633.8906 129.1875,633.8906 C126.5625,633.8906 124.5625,635.9688 124.5625,638.6875 L124.5625,639.8125 C124.5625,642.3906 126.6719,644.2813 129.5625,644.2813 C130.7813,644.2813 131.9375,643.9844 132.6875,643.4375 C133.2656,643.0313 133.5938,642.5781 133.5938,642.1875 C133.5938,641.7344 133.2031,641.3438 132.7344,641.3438 C132.5156,641.3438 132.3125,641.4219 132.125,641.6094 C131.6719,642.0938 131.6719,642.0938 131.4844,642.1875 C131.0625,642.4531 130.375,642.5781 129.6094,642.5781 C127.5625,642.5781 126.2656,641.4844 126.2656,639.7813 L126.2656,638.6875 C126.2656,636.9063 127.5156,635.5938 129.25,635.5938 C129.8281,635.5938 130.4375,635.75 130.9063,636 C131.3906,636.2813 131.5625,636.5 131.6563,636.9063 C131.7188,637.3125 131.75,637.4375 131.8906,637.5625 C132.0313,637.7031 132.2656,637.8125 132.4844,637.8125 C132.75,637.8125 133.0156,637.6719 133.1875,637.4531 C133.2969,637.2969 133.3281,637.1094 133.3281,636.6875 L133.3281,635.2656 C133.3281,634.8281 133.3125,634.7031 133.2188,634.5469 C133.0625,634.2813 132.7813,634.1406 132.4844,634.1406 C132.1875,634.1406 131.9844,634.2344 131.7656,634.5469 L131.5938,634.4688 Z " fill="#000000"/><text fill="#000000" font-family="sans-serif" font-size="14" lengthAdjust="spacing" textLength="14" x="149.75" y="643.6436">AI</text><line style="stroke:#181818;stroke-width:0.5;" x1="8" x2="273" y1="654.7969" y2="654.7969"/><line style="stroke:#181818;stroke-width:0.5;" x1="8" x2="273" y1="662.7969" y2="662.7969"/><ellipse cx="18" cy="676.4453" fill="#84BE84" rx="3" ry="3" style="stroke:#038048;stroke-width:1.0;"/><text fill="#000000" font-family="sans-serif" font-size="14" lengthAdjust="spacing" textLength="241" x="27" y="679.792">processArticle(text: String): JSON</text></g><!--class UI--><g id="elem_UI"><rect codeLine="36" fill="#F1F1F1" height="113.1875" id="UI" rx="2.5" ry="2.5" style="stroke:#181818;stroke-width:0.5;" width="388" x="296.5" y="218.2969"/><ellipse cx="479.75" cy="234.2969" fill="#ADD1B2" rx="11" ry="11" style="stroke:#181818;stroke-width:1.0;"/><path d="M482.0938,229.9688 C481.1563,229.5313 480.5625,229.3906 479.6875,229.3906 C477.0625,229.3906 475.0625,231.4688 475.0625,234.1875 L475.0625,235.3125 C475.0625,237.8906 477.1719,239.7813 480.0625,239.7813 C481.2813,239.7813 482.4375,239.4844 483.1875,238.9375 C483.7656,238.5313 484.0938,238.0781 484.0938,237.6875 C484.0938,237.2344 483.7031,236.8438 483.2344,236.8438 C483.0156,236.8438 482.8125,236.9219 482.625,237.1094 C482.1719,237.5938 482.1719,237.5938 481.9844,237.6875 C481.5625,237.9531 480.875,238.0781 480.1094,238.0781 C478.0625,238.0781 476.7656,236.9844 476.7656,235.2813 L476.7656,234.1875 C476.7656,232.4063 478.0156,231.0938 479.75,231.0938 C480.3281,231.0938 480.9375,231.25 481.4063,231.5 C481.8906,231.7813 482.0625,232 482.1563,232.4063 C482.2188,232.8125 482.25,232.9375 482.3906,233.0625 C482.5313,233.2031 482.7656,233.3125 482.9844,233.3125 C483.25,233.3125 483.5156,233.1719 483.6875,232.9531 C483.7969,232.7969 483.8281,232.6094 483.8281,232.1875 L483.8281,230.7656 C483.8281,230.3281 483.8125,230.2031 483.7188,230.0469 C483.5625,229.7813 483.2813,229.6406 482.9844,229.6406 C482.6875,229.6406 482.4844,229.7344 482.2656,230.0469 L482.0938,229.9688 Z " fill="#000000"/><text fill="#000000" font-family="sans-serif" font-size="14" lengthAdjust="spacing" textLength="13" x="500.25" y="239.1436">UI</text><line style="stroke:#181818;stroke-width:0.5;" x1="297.5" x2="683.5" y1="250.2969" y2="250.2969"/><line style="stroke:#181818;stroke-width:0.5;" x1="297.5" x2="683.5" y1="258.2969" y2="258.2969"/><ellipse cx="307.5" cy="271.9453" fill="#84BE84" rx="3" ry="3" style="stroke:#038048;stroke-width:1.0;"/><text fill="#000000" font-family="sans-serif" font-size="14" lengthAdjust="spacing" textLength="362" x="316.5" y="275.292">displayLatestArticles(articles: List&lt;Article&gt;): JSON</text><ellipse cx="307.5" cy="288.2422" fill="#84BE84" rx="3" ry="3" style="stroke:#038048;stroke-width:1.0;"/><text fill="#000000" font-family="sans-serif" font-size="14" lengthAdjust="spacing" textLength="301" x="316.5" y="291.5889">searchByCategory(category: String): JSON</text><ellipse cx="307.5" cy="304.5391" fill="#84BE84" rx="3" ry="3" style="stroke:#038048;stroke-width:1.0;"/><text fill="#000000" font-family="sans-serif" font-size="14" lengthAdjust="spacing" textLength="293" x="316.5" y="307.8857">contextualSearch(keyword: String): JSON</text><ellipse cx="307.5" cy="320.8359" fill="#84BE84" rx="3" ry="3" style="stroke:#038048;stroke-width:1.0;"/><text fill="#000000" font-family="sans-serif" font-size="14" lengthAdjust="spacing" textLength="252" x="316.5" y="324.1826">fetchArticlesFromDatabase(): JSON</text></g><!--class PostgresqlDatabase--><g id="elem_PostgresqlDatabase"><rect codeLine="43" fill="#F1F1F1" height="80.5938" id="PostgresqlDatabase" rx="2.5" ry="2.5" style="stroke:#181818;stroke-width:0.5;" width="179" x="547" y="614.2969"/><ellipse cx="563.35" cy="630.2969" fill="#ADD1B2" rx="11" ry="11" style="stroke:#181818;stroke-width:1.0;"/><path d="M565.6938,625.9688 C564.7563,625.5313 564.1625,625.3906 563.2875,625.3906 C560.6625,625.3906 558.6625,627.4688 558.6625,630.1875 L558.6625,631.3125 C558.6625,633.8906 560.7719,635.7813 563.6625,635.7813 C564.8813,635.7813 566.0375,635.4844 566.7875,634.9375 C567.3656,634.5313 567.6938,634.0781 567.6938,633.6875 C567.6938,633.2344 567.3031,632.8438 566.8344,632.8438 C566.6156,632.8438 566.4125,632.9219 566.225,633.1094 C565.7719,633.5938 565.7719,633.5938 565.5844,633.6875 C565.1625,633.9531 564.475,634.0781 563.7094,634.0781 C561.6625,634.0781 560.3656,632.9844 560.3656,631.2813 L560.3656,630.1875 C560.3656,628.4063 561.6156,627.0938 563.35,627.0938 C563.9281,627.0938 564.5375,627.25 565.0063,627.5 C565.4906,627.7813 565.6625,628 565.7563,628.4063 C565.8188,628.8125 565.85,628.9375 565.9906,629.0625 C566.1313,629.2031 566.3656,629.3125 566.5844,629.3125 C566.85,629.3125 567.1156,629.1719 567.2875,628.9531 C567.3969,628.7969 567.4281,628.6094 567.4281,628.1875 L567.4281,626.7656 C567.4281,626.3281 567.4125,626.2031 567.3188,626.0469 C567.1625,625.7813 566.8813,625.6406 566.5844,625.6406 C566.2875,625.6406 566.0844,625.7344 565.8656,626.0469 L565.6938,625.9688 Z " fill="#000000"/><text fill="#000000" font-family="sans-serif" font-size="14" lengthAdjust="spacing" textLength="144" x="577.65" y="635.1436">PostgresqlDatabase</text><line style="stroke:#181818;stroke-width:0.5;" x1="548" x2="725" y1="646.2969" y2="646.2969"/><line style="stroke:#181818;stroke-width:0.5;" x1="548" x2="725" y1="654.2969" y2="654.2969"/><ellipse cx="558" cy="667.9453" fill="#84BE84" rx="3" ry="3" style="stroke:#038048;stroke-width:1.0;"/><text fill="#000000" font-family="sans-serif" font-size="14" lengthAdjust="spacing" textLength="153" x="567" y="671.292">save(data: Any): JSON</text><ellipse cx="558" cy="684.2422" fill="#84BE84" rx="3" ry="3" style="stroke:#038048;stroke-width:1.0;"/><text fill="#000000" font-family="sans-serif" font-size="14" lengthAdjust="spacing" textLength="149" x="567" y="687.5889">load(id: String): JSON</text></g><!--reverse link BaseParser to Article--><g id="link_BaseParser_Article"><path codeLine="48" d="M1039.3495,340.9341 C1046.4595,350.1711 1045.32,350.7089 1049.5,361.2969 C1111.69,518.7949 1137.57,597.6699 1049.5,742.2969 C1026.78,779.6039 983.858,802.6759 945.512,816.5649 " fill="none" id="BaseParser-backto-Article" style="stroke:#181818;stroke-width:1.0;"/><polygon fill="#181818" points="1032.03,331.4249,1032.52,338.6193,1039.3495,340.9341,1038.8595,333.7396,1032.03,331.4249" style="stroke:#181818;stroke-width:1.0;"/><text fill="#000000" font-family="sans-serif" font-size="13" lengthAdjust="spacing" textLength="312" x="1106.5" y="580.3638">&#1050;&#1083;&#1072;&#1089;&#1089; BaseParser &#1074;&#1083;&#1072;&#1076;&#1077;&#1077;&#1090; &#1084;&#1085;&#1086;&#1078;&#1077;&#1089;&#1090;&#1074;&#1086;&#1084; &#1089;&#1090;&#1072;&#1090;&#1077;&#1081;</text></g><!--link BaseParser to FlaskAPI--><g id="link_BaseParser_FlaskAPI"><path codeLine="49" d="M820.381,307.0699 C781.69,315.0769 740.057,323.5979 701.5,331.2969 C632.263,345.1229 596.44,312.4089 545.5,361.2969 C532.703,373.5789 525.69,390.8819 521.977,408.1589 " fill="none" id="BaseParser-FlaskAPI" style="stroke:#181818;stroke-width:1.0;"/><text fill="#000000" font-family="sans-serif" font-size="13" lengthAdjust="spacing" textLength="498" x="546.5" y="374.3638">&#1050;&#1072;&#1078;&#1076;&#1099;&#1081; &#1101;&#1082;&#1079;&#1077;&#1084;&#1087;&#1083;&#1103;&#1088; BaseParser &#1086;&#1073;&#1088;&#1072;&#1097;&#1072;&#1077;&#1090;&#1089;&#1103; &#1082; &#1086;&#1076;&#1085;&#1086;&#1084;&#1091; &#1101;&#1082;&#1079;&#1077;&#1084;&#1087;&#1083;&#1103;&#1088;&#1091; FlaskAPI</text></g><!--link Parser to BaseParser--><g id="link_Parser_BaseParser"><path codeLine="50" d="M969.5,141.5609 C969.5,165.0999 969.5,175.6229 969.5,200.1439 " fill="none" id="Parser-to-BaseParser" style="stroke:#181818;stroke-width:1.0;"/><polygon fill="none" points="969.5,218.1439,975.5,200.1439,963.5,200.1439,969.5,218.1439" style="stroke:#181818;stroke-width:1.0;"/><text fill="#000000" font-family="sans-serif" font-size="13" lengthAdjust="spacing" textLength="339" x="970.5" y="184.3638">&#1053;&#1072;&#1089;&#1083;&#1077;&#1076;&#1091;&#1077;&#1090;  &#1050;&#1083;&#1072;&#1089;&#1089; Parser &#1085;&#1072;&#1089;&#1083;&#1077;&#1076;&#1091;&#1077;&#1090; &#1086;&#1090; BaseParser</text></g><!--link FlaskAPI to PostgresqlDatabase--><g id="link_FlaskAPI_PostgresqlDatabase"><path codeLine="51" d="M561.853,537.3129 C568.461,547.3249 575.188,557.5779 581.5,567.2969 C591.386,582.5209 602.125,599.3449 611.469,614.0779 " fill="none" id="FlaskAPI-PostgresqlDatabase" style="stroke:#181818;stroke-width:1.0;"/><text fill="#000000" font-family="sans-serif" font-size="13" lengthAdjust="spacing" textLength="409" x="593.5" y="580.3638">&#1050;&#1072;&#1078;&#1076;&#1099;&#1081; &#1101;&#1082;&#1079;&#1077;&#1084;&#1087;&#1083;&#1103;&#1088; FlaskAPI &#1088;&#1072;&#1073;&#1086;&#1090;&#1072;&#1077;&#1090; &#1089; &#1086;&#1076;&#1085;&#1086;&#1081; &#1073;&#1072;&#1079;&#1086;&#1081; &#1076;&#1072;&#1085;&#1085;&#1099;&#1093;</text></g><!--link FlaskAPI to AI--><g id="link_FlaskAPI_AI"><path codeLine="52" d="M334.315,496.6599 C248.39,511.4549 159.506,534.2399 133.5,567.2969 C121.39,582.6909 118.6568,587.3877 123.5538,605.3797 " fill="none" id="FlaskAPI-to-AI" style="stroke:#181818;stroke-width:1.0;"/><polygon fill="none" points="128.281,622.7479,129.3432,603.804,117.7644,606.9554,128.281,622.7479" style="stroke:#181818;stroke-width:1.0;"/><text fill="#000000" font-family="sans-serif" font-size="13" lengthAdjust="spacing" textLength="438" x="134.5" y="580.3638">&#1050;&#1072;&#1078;&#1076;&#1099;&#1081; &#1101;&#1082;&#1079;&#1077;&#1084;&#1087;&#1083;&#1103;&#1088; FlaskAPI &#1086;&#1073;&#1088;&#1072;&#1097;&#1072;&#1077;&#1090;&#1089;&#1103; &#1082; &#1086;&#1076;&#1085;&#1086;&#1084;&#1091; &#1101;&#1082;&#1079;&#1077;&#1084;&#1087;&#1083;&#1103;&#1088;&#1091; AI</text></g><!--reverse link PostgresqlDatabase to Article--><g id="link_PostgresqlDatabase_Article"><path codeLine="53" d="M653.8877,706.4793 C660.5977,722.5493 665.55,729.2779 678.5,742.2969 C709.742,773.7049 753.669,796.2609 791.418,811.34 " fill="none" id="PostgresqlDatabase-backto-Article" style="stroke:#181818;stroke-width:1.0;"/><polygon fill="none" points="649.264,695.4059,647.8847,702.4838,653.8877,706.4793,655.267,699.4014,649.264,695.4059" style="stroke:#181818;stroke-width:1.0;"/><text fill="#000000" font-family="sans-serif" font-size="13" lengthAdjust="spacing" textLength="365" x="679.5" y="738.3638">&#1050;&#1083;&#1072;&#1089;&#1089; PostgresqlDatabase &#1089;&#1086;&#1076;&#1077;&#1088;&#1078;&#1080;&#1090; &#1089;&#1089;&#1099;&#1083;&#1082;&#1080; &#1085;&#1072; &#1089;&#1090;&#1072;&#1090;&#1100;&#1080;</text></g><!--link UI to FlaskAPI--><g id="link_UI_FlaskAPI"><path codeLine="55" d="M498.733,331.4379 C502.266,355.3189 503.7795,365.5477 507.4355,390.2577 " fill="none" id="UI-to-FlaskAPI" style="stroke:#181818;stroke-width:1.0;"/><polygon fill="none" points="510.07,408.0639,513.3709,389.3795,501.5001,391.1359,510.07,408.0639" style="stroke:#181818;stroke-width:1.0;"/></g><!--SRC=[dLNTRjem5BxFK_WosyGBe0afRAl6L7LejDebSXCNh8QOsQPjzYELLhkOsDJxINi7ka57AR1NiDzeny492Q2f7H76EJxVTyvtR1yabI51whkwKqFTrtsrK3zXTeNKI4tKKFtIvp3Eu1cYsZxQ8wV2SVmG2u4yBgaFu0yEWay9IKDLHWt9QTIoDjoJRSRNZ5qcv4jEZjRCXoo8rqoqWrkauFefZLx5WjGn5uHd2VHuMC0_GSqZ8lrsioqxeVkeZ0vZIKIw94WKD0CiSLCoUE4dXBlcjOoyA0Rd4qO3wzirSGn1bO0WUjGB6wpNNULIo0FS2QSie3uEm_WDmO4jr2uLiWvw396PFrscMh4elqtyO-lwuWpMIUGJDwV9260i93ZAfsKHQuxMkafn1yPZhrxBYcMa7a8DowWEsz7YHBmBdrkRvHVu9AF7oz-C6MAyQhpUivuj4X6E9MdqEXtCuzHRMA4MKoc2V02q6AVlqo3YVhWkPpuHmYw-fRBjrLBaFZcJkJ8agAm6NcsrHGKEL_uBTh221LHqGnplGkP2FYnhGJ3tszNusL9rx5hvyNfSMnmMcQHwE6maGFUOnAUC1zkzasEUvhF3MIVTINT3pUPkP-hCVXUkG2v2o73Wqc1BaN8NyN6fb9wFSgwdvEygT1UmGdCPgx6-GD1Nvj1oRk2bhozWSQ5cA9aEuJjMjtbwO4-FSHaP_Y40HtgWRf7-fgRgDm1cwe-wqrVwl11qeQvD7zDV009X8G0qkAcnZvBuCtsvXGACQJmdI-5Z9SyCCdyOaI1g3AbS9gBoqjCCvXjUQW73Yih9RYZ8tDoaUmZE29AMVMtubtAXe2kfjmYMXW1DfYEOpjLS3_JdV08Wqgiz9EJ_LzY3scuUIPO_IOLwRlecVrfme23-ZPeaSk4P06Ig9adbinEblwg9unnOYMdsVm40]--></g></svg>