<?xml version="1.0" encoding="us-ascii" standalone="no"?><svg xmlns="http://www.w3.org/2000/svg" xmlns:xlink="http://www.w3.org/1999/xlink" contentStyleType="text/css" height="538px" preserveAspectRatio="none" style="width:1730px;height:538px;background:#FFFFFF;" version="1.1" viewBox="0 0 1730 538" width="1730px" zoomAndPan="magnify"><defs/><g><text fill="#000000" font-family="sans-serif" font-size="14" font-weight="bold" lengthAdjust="spacing" textLength="271" x="722.5" y="22.9951">&#1050;&#1086;&#1085;&#1094;&#1077;&#1087;&#1090;&#1091;&#1072;&#1083;&#1100;&#1085;&#1072;&#1103; &#1084;&#1086;&#1076;&#1077;&#1083;&#1100; IT News</text><!--entity webServer--><g id="elem_webServer"><rect fill="#F1F1F1" height="36.2969" rx="2.5" ry="2.5" style="stroke:#181818;stroke-width:0.5;" width="111" x="905.5" y="44.2969"/><text fill="#000000" font-family="sans-serif" font-size="14" lengthAdjust="spacing" textLength="91" x="915.5" y="67.292">&#1042;&#1077;&#1073;-&#1057;&#1077;&#1088;&#1074;&#1077;&#1088;</text></g><!--entity database--><g id="elem_database"><rect fill="#F1F1F1" height="36.2969" rx="2.5" ry="2.5" style="stroke:#181818;stroke-width:0.5;" width="114" x="298" y="157.2969"/><text fill="#000000" font-family="sans-serif" font-size="14" lengthAdjust="spacing" textLength="94" x="308" y="180.292">&#1041;&#1072;&#1079;&#1072; &#1044;&#1072;&#1085;&#1085;&#1099;&#1093;</text></g><!--entity userInterface--><g id="elem_userInterface"><rect fill="#F1F1F1" height="36.2969" rx="2.5" ry="2.5" style="stroke:#181818;stroke-width:0.5;" width="252" x="835" y="157.2969"/><text fill="#000000" font-family="sans-serif" font-size="14" lengthAdjust="spacing" textLength="232" x="845" y="180.292">&#1055;&#1086;&#1083;&#1100;&#1079;&#1086;&#1074;&#1072;&#1090;&#1077;&#1083;&#1100;&#1089;&#1082;&#1080;&#1081; &#1048;&#1085;&#1090;&#1077;&#1088;&#1092;&#1077;&#1081;&#1089;</text></g><!--entity newsManagement--><g id="elem_newsManagement"><rect fill="#F1F1F1" height="36.2969" rx="2.5" ry="2.5" style="stroke:#181818;stroke-width:0.5;" width="258" x="552" y="270.2969"/><text fill="#000000" font-family="sans-serif" font-size="14" lengthAdjust="spacing" textLength="238" x="562" y="293.292">&#1052;&#1086;&#1076;&#1091;&#1083;&#1100; &#1059;&#1087;&#1088;&#1072;&#1074;&#1083;&#1077;&#1085;&#1080;&#1103; &#1053;&#1086;&#1074;&#1086;&#1089;&#1090;&#1103;&#1084;&#1080;</text></g><!--entity searchModule--><g id="elem_searchModule"><rect fill="#F1F1F1" height="36.2969" rx="2.5" ry="2.5" style="stroke:#181818;stroke-width:0.5;" width="134" x="1067" y="270.2969"/><text fill="#000000" font-family="sans-serif" font-size="14" lengthAdjust="spacing" textLength="114" x="1077" y="293.292">&#1052;&#1086;&#1076;&#1091;&#1083;&#1100; &#1055;&#1086;&#1080;&#1089;&#1082;&#1072;</text></g><!--entity Service--><g id="elem_Service"><rect fill="#F1F1F1" height="36.2969" rx="2.5" ry="2.5" style="stroke:#181818;stroke-width:0.5;" width="75" x="1430.5" y="157.2969"/><text fill="#000000" font-family="sans-serif" font-size="14" lengthAdjust="spacing" textLength="55" x="1440.5" y="180.292">&#1057;&#1077;&#1088;&#1074;&#1080;&#1089;</text></g><!--entity ServiceParsing--><g id="elem_ServiceParsing"><rect fill="#F1F1F1" height="36.2969" rx="2.5" ry="2.5" style="stroke:#181818;stroke-width:0.5;" width="148" x="1310" y="270.2969"/><text fill="#000000" font-family="sans-serif" font-size="14" lengthAdjust="spacing" textLength="128" x="1320" y="293.292">&#1057;&#1077;&#1088;&#1074;&#1080;&#1089; &#1087;&#1072;&#1088;&#1089;&#1080;&#1085;&#1075;&#1072;</text></g><!--entity ServiceAnnotation--><g id="elem_ServiceAnnotation"><rect fill="#F1F1F1" height="36.2969" rx="2.5" ry="2.5" style="stroke:#181818;stroke-width:0.5;" width="195" x="1493.5" y="270.2969"/><text fill="#000000" font-family="sans-serif" font-size="14" lengthAdjust="spacing" textLength="175" x="1503.5" y="293.292">&#1057;&#1077;&#1088;&#1074;&#1080;&#1089; &#1072;&#1085;&#1085;&#1086;&#1090;&#1080;&#1088;&#1086;&#1074;&#1072;&#1085;&#1080;&#1103;</text></g><!--entity ParserBase--><g id="elem_ParserBase"><rect fill="#F1F1F1" height="36.2969" rx="2.5" ry="2.5" style="stroke:#181818;stroke-width:0.5;" width="75" x="1346.5" y="383.2969"/><text fill="#000000" font-family="sans-serif" font-size="14" lengthAdjust="spacing" textLength="55" x="1356.5" y="406.292">&#1055;&#1072;&#1088;&#1089;&#1077;&#1088;</text></g><!--entity ParserUnit--><g id="elem_ParserUnit"><rect fill="#F1F1F1" height="36.2969" rx="2.5" ry="2.5" style="stroke:#181818;stroke-width:0.5;" width="232" x="1268" y="496.2969"/><text fill="#000000" font-family="sans-serif" font-size="14" lengthAdjust="spacing" textLength="212" x="1278" y="519.292">&#1055;&#1072;&#1088;&#1089;&#1077;&#1088; &#1085;&#1086;&#1074;&#1086;&#1089;&#1090;&#1085;&#1086;&#1075;&#1086; &#1088;&#1077;&#1089;&#1091;&#1088;&#1089;&#1072;</text></g><!--entity AI--><g id="elem_AI"><rect fill="#F1F1F1" height="36.2969" rx="2.5" ry="2.5" style="stroke:#181818;stroke-width:0.5;" width="221" x="1480.5" y="383.2969"/><text fill="#000000" font-family="sans-serif" font-size="14" lengthAdjust="spacing" textLength="201" x="1490.5" y="406.292">&#1048;&#1089;&#1082;&#1091;&#1089;&#1089;&#1090;&#1074;&#1077;&#1085;&#1085;&#1099;&#1081; &#1080;&#1085;&#1090;&#1077;&#1083;&#1083;&#1077;&#1082;&#1090;</text></g><!--entity newsStorage--><g id="elem_newsStorage"><rect fill="#F1F1F1" height="36.2969" rx="2.5" ry="2.5" style="stroke:#181818;stroke-width:0.5;" width="156" x="7" y="270.2969"/><text fill="#000000" font-family="sans-serif" font-size="14" lengthAdjust="spacing" textLength="136" x="17" y="293.292">&#1053;&#1086;&#1074;&#1086;&#1089;&#1090;&#1085;&#1072;&#1103; &#1089;&#1090;&#1072;&#1090;&#1100;&#1103;</text></g><!--entity userStorage--><g id="elem_userStorage"><rect fill="#F1F1F1" height="36.2969" rx="2.5" ry="2.5" style="stroke:#181818;stroke-width:0.5;" width="312" x="199" y="270.2969"/><text fill="#000000" font-family="sans-serif" font-size="14" lengthAdjust="spacing" textLength="292" x="209" y="293.292">&#1061;&#1088;&#1072;&#1085;&#1080;&#1083;&#1080;&#1097;&#1077; &#1055;&#1086;&#1083;&#1100;&#1079;&#1086;&#1074;&#1072;&#1090;&#1077;&#1083;&#1100;&#1089;&#1082;&#1080;&#1093; &#1044;&#1072;&#1085;&#1085;&#1099;&#1093;</text></g><!--link database to newsStorage--><g id="link_database_newsStorage"><path d="M297.993,181.3849 C235.973,187.9469 141.923,201.2219 114,223.2969 C99.359,234.8719 94.7621,243.8281 91.0978,258.5301 " fill="none" id="database-to-newsStorage" style="stroke:#181818;stroke-width:1.0;"/><polygon fill="#181818" points="88.1957,270.1739,93.528,265.3193,91.0978,258.5301,85.7655,263.3846,88.1957,270.1739" style="stroke:#181818;stroke-width:1.0;"/><text fill="#000000" font-family="sans-serif" font-size="13" lengthAdjust="spacing" textLength="228" x="115" y="236.3638">&#1061;&#1088;&#1072;&#1085;&#1080;&#1090; &#1076;&#1072;&#1085;&#1085;&#1099;&#1077; &#1085;&#1086;&#1074;&#1086;&#1089;&#1090;&#1085;&#1099;&#1093; &#1089;&#1090;&#1072;&#1090;&#1077;&#1081;</text></g><!--link database to userStorage--><g id="link_database_userStorage"><path d="M353.624,193.6939 C352.991,202.5499 352.313,213.4899 352,223.2969 C351.493,239.1949 351.5818,245.3362 352.5588,258.2232 " fill="none" id="database-to-userStorage" style="stroke:#181818;stroke-width:1.0;"/><polygon fill="#181818" points="353.466,270.1889,357.001,263.9037,352.5588,258.2232,349.0239,264.5084,353.466,270.1889" style="stroke:#181818;stroke-width:1.0;"/><text fill="#000000" font-family="sans-serif" font-size="13" lengthAdjust="spacing" textLength="249" x="353" y="236.3638">&#1061;&#1088;&#1072;&#1085;&#1077;&#1085;&#1080;&#1077; &#1087;&#1086;&#1083;&#1100;&#1079;&#1086;&#1074;&#1072;&#1090;&#1077;&#1083;&#1100;&#1089;&#1082;&#1080;&#1093; &#1076;&#1072;&#1085;&#1085;&#1099;&#1093;</text></g><!--link webServer to database--><g id="link_webServer_database"><path d="M905.403,66.2159 C796.964,72.3279 561.017,87.7929 483,110.2969 C445.999,120.9699 417.1681,136.0039 392.0601,151.0789 " fill="none" id="webServer-to-database" style="stroke:#181818;stroke-width:1.0;"/><polygon fill="none" points="381.772,157.2559,388.975,157.5967,392.0601,151.0789,384.857,150.738,381.772,157.2559" style="stroke:#181818;stroke-width:1.0;"/><text fill="#000000" font-family="sans-serif" font-size="13" lengthAdjust="spacing" textLength="118" x="484" y="123.3638">&#1044;&#1086;&#1089;&#1090;&#1091;&#1087; &#1082; &#1076;&#1072;&#1085;&#1085;&#1099;&#1084;</text></g><!--link webServer to userInterface--><g id="link_webServer_userInterface"><path d="M961,80.6409 C961,101.4939 961,130.2759 961,151.0749 " fill="none" id="webServer-to-userInterface" style="stroke:#181818;stroke-width:1.0;"/><polygon fill="#181818" points="961,157.0749,965,148.0749,961,152.0749,957,148.0749,961,157.0749" style="stroke:#181818;stroke-width:1.0;"/><text fill="#000000" font-family="sans-serif" font-size="13" lengthAdjust="spacing" textLength="257" x="962" y="123.3638">&#1054;&#1090;&#1087;&#1088;&#1072;&#1074;&#1082;&#1072; &#1087;&#1086;&#1083;&#1100;&#1079;&#1086;&#1074;&#1072;&#1090;&#1077;&#1083;&#1100;&#1089;&#1082;&#1080;&#1093; &#1079;&#1072;&#1087;&#1088;&#1086;&#1089;&#1086;&#1074;</text></g><!--link webServer to newsManagement--><g id="link_webServer_newsManagement"><path d="M905.251,72.7929 C827.025,87.3819 690.975,117.8149 662,157.2969 C637.169,191.1319 655.1313,238.1382 668.7273,264.9112 " fill="none" id="webServer-to-newsManagement" style="stroke:#181818;stroke-width:1.0;"/><polygon fill="#181818" points="671.444,270.2609,670.9354,260.4252,669.1801,265.8028,663.8024,264.0474,671.444,270.2609" style="stroke:#181818;stroke-width:1.0;"/><text fill="#000000" font-family="sans-serif" font-size="13" lengthAdjust="spacing" textLength="153" x="663" y="179.8638">&#1059;&#1087;&#1088;&#1072;&#1074;&#1083;&#1077;&#1085;&#1080;&#1077; &#1085;&#1086;&#1074;&#1086;&#1089;&#1090;&#1103;&#1084;&#1080;</text></g><!--link webServer to searchModule--><g id="link_webServer_searchModule"><path d="M1016.55,65.3169 C1086.35,69.1149 1200.37,79.9159 1228,110.2969 C1266.97,153.1439 1268.32,191.5799 1237,240.2969 C1228.39,253.6889 1220.3312,260.7198 1205.9312,267.6178 " fill="none" id="webServer-to-searchModule" style="stroke:#181818;stroke-width:1.0;"/><polygon fill="#181818" points="1200.52,270.2099,1210.3649,269.9292,1205.0293,268.0498,1206.9087,262.7143,1200.52,270.2099" style="stroke:#181818;stroke-width:1.0;"/><text fill="#000000" font-family="sans-serif" font-size="13" lengthAdjust="spacing" textLength="134" x="1260" y="179.8638">&#1042;&#1099;&#1087;&#1086;&#1083;&#1085;&#1077;&#1085;&#1080;&#1077; &#1087;&#1086;&#1080;&#1089;&#1082;&#1072;</text></g><!--link userInterface to newsManagement--><g id="link_userInterface_newsManagement"><path d="M834.687,191.8809 C770.49,200.9669 703.73,212.6919 693,223.2969 C680.779,235.3759 678.6576,249.6766 679.0986,264.1746 " fill="none" id="userInterface-to-newsManagement" style="stroke:#181818;stroke-width:1.0;"/><polygon fill="#181818" points="679.281,270.1719,683.0055,261.0544,679.129,265.1742,675.0092,261.2977,679.281,270.1719" style="stroke:#181818;stroke-width:1.0;"/><text fill="#000000" font-family="sans-serif" font-size="13" lengthAdjust="spacing" textLength="331" x="694" y="236.3638">&#1054;&#1090;&#1086;&#1073;&#1088;&#1072;&#1078;&#1077;&#1085;&#1080;&#1077; &#1085;&#1086;&#1074;&#1086;&#1089;&#1090;&#1077;&#1081; &#1080; &#1074;&#1079;&#1072;&#1080;&#1084;&#1086;&#1076;&#1077;&#1081;&#1089;&#1090;&#1074;&#1080;&#1077; &#1089; &#1085;&#1080;&#1084;&#1080;</text></g><!--link userInterface to searchModule--><g id="link_userInterface_searchModule"><path d="M986.085,193.4179 C1005.349,206.4699 1032.68,224.7799 1057,240.2969 C1072.84,250.4069 1085.6136,258.2646 1100.1736,267.0556 " fill="none" id="userInterface-to-searchModule" style="stroke:#181818;stroke-width:1.0;"/><polygon fill="#181818" points="1105.31,270.1569,1099.6729,262.0808,1101.0297,267.5725,1095.5379,268.9293,1105.31,270.1569" style="stroke:#181818;stroke-width:1.0;"/><text fill="#000000" font-family="sans-serif" font-size="13" lengthAdjust="spacing" textLength="174" x="1058" y="236.3638">&#1042;&#1074;&#1086;&#1076; &#1087;&#1086;&#1080;&#1089;&#1082;&#1086;&#1074;&#1099;&#1093; &#1079;&#1072;&#1087;&#1088;&#1086;&#1089;&#1086;&#1074;</text></g><!--reverse link webServer to Service--><g id="link_webServer_Service"><path d="M1022.6316,68.6688 C1087.6716,75.0178 1192.25,87.5759 1285,110.2969 C1336.49,122.9099 1393.89,144.2279 1430.44,158.7659 " fill="none" id="webServer-backto-Service" style="stroke:#181818;stroke-width:1.0;"/><polygon fill="#181818" points="1016.66,68.0859,1025.2288,72.9413,1021.6363,68.5717,1026.006,64.9792,1016.66,68.0859" style="stroke:#181818;stroke-width:1.0;"/><text fill="#000000" font-family="sans-serif" font-size="13" lengthAdjust="spacing" textLength="108" x="1343" y="123.3638">&#1054;&#1073;&#1084;&#1077;&#1085; &#1076;&#1072;&#1085;&#1085;&#1099;&#1084;&#1080;</text></g><!--link Service to ServiceAnnotation--><g id="link_Service_ServiceAnnotation"><path d="M1497.3,193.3059 C1510.39,201.5599 1525.62,212.1039 1538,223.2969 C1553.73,237.5209 1561.7405,246.8604 1571.7805,260.4534 " fill="none" id="Service-to-ServiceAnnotation" style="stroke:#181818;stroke-width:1.0;"/><polygon fill="none" points="1578.91,270.1059,1578.5628,262.9031,1571.7805,260.4534,1572.1278,267.6561,1578.91,270.1059" style="stroke:#181818;stroke-width:1.0;"/><text fill="#000000" font-family="sans-serif" font-size="13" lengthAdjust="spacing" textLength="120" x="1556" y="236.3638">&#1055;&#1086;&#1083;&#1091;&#1095;&#1072;&#1077;&#1090; &#1076;&#1072;&#1085;&#1085;&#1099;&#1077;</text></g><!--link ServiceAnnotation to AI--><g id="link_ServiceAnnotation_AI"><path d="M1591,306.6409 C1591,327.4939 1591,356.2759 1591,377.0749 " fill="none" id="ServiceAnnotation-to-AI" style="stroke:#181818;stroke-width:1.0;"/><polygon fill="#181818" points="1591,383.0749,1595,374.0749,1591,378.0749,1587,374.0749,1591,383.0749" style="stroke:#181818;stroke-width:1.0;"/><text fill="#000000" font-family="sans-serif" font-size="13" lengthAdjust="spacing" textLength="130" x="1592" y="349.3638">&#1054;&#1090;&#1087;&#1088;&#1072;&#1074;&#1083;&#1103;&#1077;&#1090; &#1089;&#1090;&#1072;&#1090;&#1100;&#1102;</text></g><!--link Service to ServiceParsing--><g id="link_Service_ServiceParsing"><path d="M1430.36,193.1129 C1417.61,200.6029 1404.46,210.6359 1396,223.2969 C1386.71,237.2099 1384.5952,244.4341 1384.0852,258.1721 " fill="none" id="Service-to-ServiceParsing" style="stroke:#181818;stroke-width:1.0;"/><polygon fill="none" points="1383.64,270.1639,1387.8598,264.3164,1384.0852,258.1721,1379.8653,264.0196,1383.64,270.1639" style="stroke:#181818;stroke-width:1.0;"/><text fill="#000000" font-family="sans-serif" font-size="13" lengthAdjust="spacing" textLength="136" x="1397" y="236.3638">&#1054;&#1090;&#1087;&#1088;&#1072;&#1074;&#1083;&#1103;&#1077;&#1090; &#1044;&#1072;&#1085;&#1085;&#1099;&#1077;</text></g><!--link ServiceParsing to ParserBase--><g id="link_ServiceParsing_ParserBase"><path d="M1384,306.6409 C1384,327.4939 1384,350.2759 1384,371.0749 " fill="none" id="ServiceParsing-to-ParserBase" style="stroke:#181818;stroke-width:1.0;"/><polygon fill="none" points="1384,383.0749,1388,377.0749,1384,371.0749,1380,377.0749,1384,383.0749" style="stroke:#181818;stroke-width:1.0;"/><text fill="#000000" font-family="sans-serif" font-size="13" lengthAdjust="spacing" textLength="135" x="1385" y="349.3638">&#1054;&#1090;&#1087;&#1088;&#1072;&#1074;&#1083;&#1103;&#1077;&#1090; &#1076;&#1072;&#1085;&#1085;&#1099;&#1077;</text></g><!--link ParserBase to ParserUnit--><g id="link_ParserBase_ParserUnit"><path d="M1384,419.6409 C1384,440.4938 1384,463.2762 1384,484.0749 " fill="none" id="ParserBase-to-ParserUnit" style="stroke:#181818;stroke-width:1.0;"/><polygon fill="#181818" points="1384,496.0749,1388,490.0749,1384,484.0749,1380,490.0749,1384,496.0749" style="stroke:#181818;stroke-width:1.0;"/><text fill="#000000" font-family="sans-serif" font-size="13" lengthAdjust="spacing" textLength="170" x="1385" y="462.3638">&#1055;&#1088;&#1086;&#1080;&#1079;&#1074;&#1086;&#1080;&#1090; &#1089;&#1073;&#1086;&#1088; &#1085;&#1086;&#1074;&#1086;&#1089;&#1090;&#1077;&#1081;</text></g><!--SRC=[XLJBRjfG4DtxAwvOLk87igX4TonILKho0GwvfKYfgMpJRC4qhQfMHOsoYAgcKLLr3mGQ0m5-OUuVzSpuRHxPWEqxSywPCpFtkEMVQrMX7xIYfVb8KrgRmFHfI0lpbPOqD0D5ZpYSu0YVLFrOlTGNNiMoNDtmRQSfwLSu7LNfDqrDbyRyMr6sfoxqwP5stsit5upexu1_eA6YQpmimVl5N4hycUtRfxQdY-5te6Sr3_WVGr4GIJ4zcbD8CqKtW0YOr7p0qSpq1ApZQRVk-DfzRJTAY3-v85J91T4VbDo5a34jaBsaa4k-5QwLwS6D0Gm81T91vOUsOpVrM-tuUp1PSYW2XvBeQTjjl3bidtNEIr8Ioy9ODVlLQkmEKhI61LrWXz1w7-F7MQzirsivpJt9uZVg2l3QZVoCIix3r1odxTj-g-sK6n4n9-rbEks-sDAmD4unM-AaFD_JIe5wYWzzYHhci4wSLidM6tOHaJq164k7C33SzZ1gEzh6ZPkRG81gTQk8S5iGm0CjZvWZpD0WxUkHttRHs6BkNvaC60IAq7ocgTe_ZUPoSwXv3XDmAvbmLQq-ozEg0vMHcK1Xts8KvYnuoC1f2JplHT0SNHvK9fknra_fdsJwBIlTO62tq_rauEjuE_gqLZJF2tuiP3qlBYAd_W9fidDplWUUr8JRGZ90oI4bWk9QCiF6JfTSZ7Qw19DVKWQvGYsYh6nVlDcMLQniknGkTaKZaVDlgnZk8QPPuPth3DFxTXRFF2VmyYxbBDn2ko6TiMcIbmiwcPmDBwruwrMrymvGgIUidKOWXEP2Uw4Woy5KRDmQ1ycMzCqdf4rBysnj94WDjNffD1Re4kVcrlNRLkRusbCxyhEDpBYJ54R9hh6T27drLYwU5owxkJZzJgxL42wFnNgM3nTNvQiGtVqF]--></g></svg>