<?xml version="1.0" encoding="us-ascii" standalone="no"?><svg xmlns="http://www.w3.org/2000/svg" xmlns:xlink="http://www.w3.org/1999/xlink" contentStyleType="text/css" height="620px" preserveAspectRatio="none" style="width:859px;height:620px;background:#FFFFFF;" version="1.1" viewBox="0 0 859 620" width="859px" zoomAndPan="magnify"><defs/><g><text fill="#000000" font-family="sans-serif" font-size="14" font-weight="bold" lengthAdjust="spacing" textLength="303" x="271" y="22.9951">&#1050;&#1086;&#1085;&#1094;&#1077;&#1087;&#1090;&#1091;&#1072;&#1083;&#1100;&#1085;&#1072;&#1103; &#1044;&#1080;&#1072;&#1075;&#1088;&#1072;&#1084;&#1084;&#1072; IT News</text><!--class Article--><g id="elem_Article"><rect codeLine="3" fill="#F1F1F1" height="129.4844" id="Article" rx="2.5" ry="2.5" style="stroke:#181818;stroke-width:0.5;" width="163" x="7.5" y="202.2969"/><ellipse cx="57.75" cy="218.2969" fill="#ADD1B2" rx="11" ry="11" style="stroke:#181818;stroke-width:1.0;"/><path d="M56.5469,219.1719 L58,219.1719 L58,219.2813 C58,219.6875 58.0313,219.8438 58.1094,220 C58.2656,220.25 58.5469,220.4063 58.8438,220.4063 C59.0938,220.4063 59.3594,220.2656 59.5156,220.0469 C59.6406,219.8906 59.6719,219.7344 59.6719,219.2813 L59.6719,217.3594 C59.6719,217.2031 59.6719,217.1563 59.6563,217 C59.5938,216.5313 59.2813,216.2188 58.8281,216.2188 C58.5781,216.2188 58.3125,216.3594 58.1406,216.5781 C58.0313,216.75 58,216.9063 58,217.3594 L58,217.4844 L56.5469,217.4844 L56.5469,215.0781 L60.5313,215.0781 L60.5313,215.9375 C60.5313,216.3438 60.5625,216.5156 60.6406,216.6719 C60.8125,216.9219 61.0938,217.0781 61.375,217.0781 C61.6406,217.0781 61.9063,216.9375 62.0781,216.7188 C62.1875,216.5469 62.2188,216.4063 62.2188,215.9375 L62.2188,213.3906 L54.5938,213.3906 C54.1563,213.3906 54.0313,213.4063 53.875,213.5 C53.625,213.6563 53.4688,213.9531 53.4688,214.2344 C53.4688,214.5156 53.6094,214.7656 53.8281,214.9375 C53.9844,215.0469 54.1719,215.0781 54.5938,215.0781 L54.8438,215.0781 L54.8438,221.5938 L54.5938,221.5938 C54.1875,221.5938 54.0313,221.6094 53.875,221.7188 C53.625,221.8906 53.4688,222.1563 53.4688,222.4531 C53.4688,222.7188 53.6094,222.9688 53.8281,223.125 C53.9688,223.25 54.2031,223.2969 54.5938,223.2969 L62.5938,223.2969 L62.5938,220.7188 C62.5938,220.2813 62.5625,220.1406 62.4844,219.9844 C62.3125,219.7344 62.0313,219.5781 61.75,219.5781 C61.4844,219.5781 61.2188,219.6875 61.0469,219.9375 C60.9375,220.0938 60.9063,220.2344 60.9063,220.7188 L60.9063,221.5938 L56.5469,221.5938 L56.5469,219.1719 Z " fill="#000000"/><text fill="#000000" font-family="sans-serif" font-size="14" lengthAdjust="spacing" textLength="54" x="78.25" y="223.1436">&#1057;&#1090;&#1072;&#1090;&#1100;&#1103;</text><line style="stroke:#181818;stroke-width:0.5;" x1="8.5" x2="169.5" y1="234.2969" y2="234.2969"/><ellipse cx="18.5" cy="247.9453" fill="none" rx="3" ry="3" style="stroke:#038048;stroke-width:1.0;"/><text fill="#000000" font-family="sans-serif" font-size="14" lengthAdjust="spacing" textLength="93" x="27.5" y="251.292">title: &#1089;&#1090;&#1088;&#1086;&#1082;&#1072;</text><ellipse cx="18.5" cy="264.2422" fill="none" rx="3" ry="3" style="stroke:#038048;stroke-width:1.0;"/><text fill="#000000" font-family="sans-serif" font-size="14" lengthAdjust="spacing" textLength="109" x="27.5" y="267.5889">author: &#1089;&#1090;&#1088;&#1086;&#1082;&#1072;</text><ellipse cx="18.5" cy="280.5391" fill="none" rx="3" ry="3" style="stroke:#038048;stroke-width:1.0;"/><text fill="#000000" font-family="sans-serif" font-size="14" lengthAdjust="spacing" textLength="126" x="27.5" y="283.8857">postHref: &#1089;&#1090;&#1088;&#1086;&#1082;&#1072;</text><ellipse cx="18.5" cy="296.8359" fill="none" rx="3" ry="3" style="stroke:#038048;stroke-width:1.0;"/><text fill="#000000" font-family="sans-serif" font-size="14" lengthAdjust="spacing" textLength="89" x="27.5" y="300.1826">body: &#1090;&#1077;&#1082;&#1089;&#1090;</text><ellipse cx="18.5" cy="313.1328" fill="none" rx="3" ry="3" style="stroke:#038048;stroke-width:1.0;"/><text fill="#000000" font-family="sans-serif" font-size="14" lengthAdjust="spacing" textLength="137" x="27.5" y="316.4795">imageHref: &#1089;&#1090;&#1088;&#1086;&#1082;&#1072;</text><line style="stroke:#181818;stroke-width:0.5;" x1="8.5" x2="169.5" y1="323.7813" y2="323.7813"/></g><!--class BaseParser--><g id="elem_BaseParser"><rect codeLine="11" fill="#F1F1F1" height="64.2969" id="BaseParser" rx="2.5" ry="2.5" style="stroke:#181818;stroke-width:0.5;" width="196" x="138" y="408.2969"/><ellipse cx="171.45" cy="424.2969" fill="#ADD1B2" rx="11" ry="11" style="stroke:#181818;stroke-width:1.0;"/><path d="M170.2469,425.1719 L171.7,425.1719 L171.7,425.2813 C171.7,425.6875 171.7313,425.8438 171.8094,426 C171.9656,426.25 172.2469,426.4063 172.5438,426.4063 C172.7938,426.4063 173.0594,426.2656 173.2156,426.0469 C173.3406,425.8906 173.3719,425.7344 173.3719,425.2813 L173.3719,423.3594 C173.3719,423.2031 173.3719,423.1563 173.3563,423 C173.2938,422.5313 172.9813,422.2188 172.5281,422.2188 C172.2781,422.2188 172.0125,422.3594 171.8406,422.5781 C171.7313,422.75 171.7,422.9063 171.7,423.3594 L171.7,423.4844 L170.2469,423.4844 L170.2469,421.0781 L174.2313,421.0781 L174.2313,421.9375 C174.2313,422.3438 174.2625,422.5156 174.3406,422.6719 C174.5125,422.9219 174.7938,423.0781 175.075,423.0781 C175.3406,423.0781 175.6063,422.9375 175.7781,422.7188 C175.8875,422.5469 175.9188,422.4063 175.9188,421.9375 L175.9188,419.3906 L168.2938,419.3906 C167.8563,419.3906 167.7313,419.4063 167.575,419.5 C167.325,419.6563 167.1688,419.9531 167.1688,420.2344 C167.1688,420.5156 167.3094,420.7656 167.5281,420.9375 C167.6844,421.0469 167.8719,421.0781 168.2938,421.0781 L168.5438,421.0781 L168.5438,427.5938 L168.2938,427.5938 C167.8875,427.5938 167.7313,427.6094 167.575,427.7188 C167.325,427.8906 167.1688,428.1563 167.1688,428.4531 C167.1688,428.7188 167.3094,428.9688 167.5281,429.125 C167.6688,429.25 167.9031,429.2969 168.2938,429.2969 L176.2938,429.2969 L176.2938,426.7188 C176.2938,426.2813 176.2625,426.1406 176.1844,425.9844 C176.0125,425.7344 175.7313,425.5781 175.45,425.5781 C175.1844,425.5781 174.9188,425.6875 174.7469,425.9375 C174.6375,426.0938 174.6063,426.2344 174.6063,426.7188 L174.6063,427.5938 L170.2469,427.5938 L170.2469,425.1719 Z " fill="#000000"/><text fill="#000000" font-family="sans-serif" font-size="14" lengthAdjust="spacing" textLength="123" x="189.55" y="429.1436">&#1041;&#1072;&#1079;&#1086;&#1074;&#1099;&#1081; &#1055;&#1072;&#1088;&#1089;&#1077;&#1088;</text><line style="stroke:#181818;stroke-width:0.5;" x1="139" x2="333" y1="440.2969" y2="440.2969"/><ellipse cx="149" cy="453.9453" fill="none" rx="3" ry="3" style="stroke:#038048;stroke-width:1.0;"/><text fill="#000000" font-family="sans-serif" font-size="14" lengthAdjust="spacing" textLength="170" x="158" y="457.292">articles: &#1089;&#1087;&#1080;&#1089;&#1086;&#1082; &#1089;&#1090;&#1072;&#1090;&#1077;&#1081;</text><line style="stroke:#181818;stroke-width:0.5;" x1="139" x2="333" y1="464.5938" y2="464.5938"/></g><!--class Parser--><g id="elem_Parser"><rect codeLine="15" fill="#F1F1F1" height="64.2969" id="Parser" rx="2.5" ry="2.5" style="stroke:#181818;stroke-width:0.5;" width="196" x="7" y="549.2969"/><ellipse cx="73.25" cy="565.2969" fill="#ADD1B2" rx="11" ry="11" style="stroke:#181818;stroke-width:1.0;"/><path d="M72.0469,566.1719 L73.5,566.1719 L73.5,566.2813 C73.5,566.6875 73.5313,566.8438 73.6094,567 C73.7656,567.25 74.0469,567.4063 74.3438,567.4063 C74.5938,567.4063 74.8594,567.2656 75.0156,567.0469 C75.1406,566.8906 75.1719,566.7344 75.1719,566.2813 L75.1719,564.3594 C75.1719,564.2031 75.1719,564.1563 75.1563,564 C75.0938,563.5313 74.7813,563.2188 74.3281,563.2188 C74.0781,563.2188 73.8125,563.3594 73.6406,563.5781 C73.5313,563.75 73.5,563.9063 73.5,564.3594 L73.5,564.4844 L72.0469,564.4844 L72.0469,562.0781 L76.0313,562.0781 L76.0313,562.9375 C76.0313,563.3438 76.0625,563.5156 76.1406,563.6719 C76.3125,563.9219 76.5938,564.0781 76.875,564.0781 C77.1406,564.0781 77.4063,563.9375 77.5781,563.7188 C77.6875,563.5469 77.7188,563.4063 77.7188,562.9375 L77.7188,560.3906 L70.0938,560.3906 C69.6563,560.3906 69.5313,560.4063 69.375,560.5 C69.125,560.6563 68.9688,560.9531 68.9688,561.2344 C68.9688,561.5156 69.1094,561.7656 69.3281,561.9375 C69.4844,562.0469 69.6719,562.0781 70.0938,562.0781 L70.3438,562.0781 L70.3438,568.5938 L70.0938,568.5938 C69.6875,568.5938 69.5313,568.6094 69.375,568.7188 C69.125,568.8906 68.9688,569.1563 68.9688,569.4531 C68.9688,569.7188 69.1094,569.9688 69.3281,570.125 C69.4688,570.25 69.7031,570.2969 70.0938,570.2969 L78.0938,570.2969 L78.0938,567.7188 C78.0938,567.2813 78.0625,567.1406 77.9844,566.9844 C77.8125,566.7344 77.5313,566.5781 77.25,566.5781 C76.9844,566.5781 76.7188,566.6875 76.5469,566.9375 C76.4375,567.0938 76.4063,567.2344 76.4063,567.7188 L76.4063,568.5938 L72.0469,568.5938 L72.0469,566.1719 Z " fill="#000000"/><text fill="#000000" font-family="sans-serif" font-size="14" lengthAdjust="spacing" textLength="55" x="93.75" y="570.1436">&#1055;&#1072;&#1088;&#1089;&#1077;&#1088;</text><line style="stroke:#181818;stroke-width:0.5;" x1="8" x2="202" y1="581.2969" y2="581.2969"/><ellipse cx="18" cy="594.9453" fill="none" rx="3" ry="3" style="stroke:#038048;stroke-width:1.0;"/><text fill="#000000" font-family="sans-serif" font-size="14" lengthAdjust="spacing" textLength="170" x="27" y="598.292">articles: &#1089;&#1087;&#1080;&#1089;&#1086;&#1082; &#1089;&#1090;&#1072;&#1090;&#1077;&#1081;</text><line style="stroke:#181818;stroke-width:0.5;" x1="8" x2="202" y1="605.5938" y2="605.5938"/></g><!--class FlaskAPI--><g id="elem_FlaskAPI"><rect codeLine="19" fill="#F1F1F1" height="64.2969" id="FlaskAPI" rx="2.5" ry="2.5" style="stroke:#181818;stroke-width:0.5;" width="245" x="314.5" y="234.7969"/><ellipse cx="403.25" cy="250.7969" fill="#ADD1B2" rx="11" ry="11" style="stroke:#181818;stroke-width:1.0;"/><path d="M402.0469,251.6719 L403.5,251.6719 L403.5,251.7813 C403.5,252.1875 403.5313,252.3438 403.6094,252.5 C403.7656,252.75 404.0469,252.9063 404.3438,252.9063 C404.5938,252.9063 404.8594,252.7656 405.0156,252.5469 C405.1406,252.3906 405.1719,252.2344 405.1719,251.7813 L405.1719,249.8594 C405.1719,249.7031 405.1719,249.6563 405.1563,249.5 C405.0938,249.0313 404.7813,248.7188 404.3281,248.7188 C404.0781,248.7188 403.8125,248.8594 403.6406,249.0781 C403.5313,249.25 403.5,249.4063 403.5,249.8594 L403.5,249.9844 L402.0469,249.9844 L402.0469,247.5781 L406.0313,247.5781 L406.0313,248.4375 C406.0313,248.8438 406.0625,249.0156 406.1406,249.1719 C406.3125,249.4219 406.5938,249.5781 406.875,249.5781 C407.1406,249.5781 407.4063,249.4375 407.5781,249.2188 C407.6875,249.0469 407.7188,248.9063 407.7188,248.4375 L407.7188,245.8906 L400.0938,245.8906 C399.6563,245.8906 399.5313,245.9063 399.375,246 C399.125,246.1563 398.9688,246.4531 398.9688,246.7344 C398.9688,247.0156 399.1094,247.2656 399.3281,247.4375 C399.4844,247.5469 399.6719,247.5781 400.0938,247.5781 L400.3438,247.5781 L400.3438,254.0938 L400.0938,254.0938 C399.6875,254.0938 399.5313,254.1094 399.375,254.2188 C399.125,254.3906 398.9688,254.6563 398.9688,254.9531 C398.9688,255.2188 399.1094,255.4688 399.3281,255.625 C399.4688,255.75 399.7031,255.7969 400.0938,255.7969 L408.0938,255.7969 L408.0938,253.2188 C408.0938,252.7813 408.0625,252.6406 407.9844,252.4844 C407.8125,252.2344 407.5313,252.0781 407.25,252.0781 C406.9844,252.0781 406.7188,252.1875 406.5469,252.4375 C406.4375,252.5938 406.4063,252.7344 406.4063,253.2188 L406.4063,254.0938 L402.0469,254.0938 L402.0469,251.6719 Z " fill="#000000"/><text fill="#000000" font-family="sans-serif" font-size="14" lengthAdjust="spacing" textLength="59" x="423.75" y="255.6436">FlaskAPI</text><line style="stroke:#181818;stroke-width:0.5;" x1="315.5" x2="558.5" y1="266.7969" y2="266.7969"/><ellipse cx="325.5" cy="280.4453" fill="none" rx="3" ry="3" style="stroke:#038048;stroke-width:1.0;"/><text fill="#000000" font-family="sans-serif" font-size="14" lengthAdjust="spacing" textLength="219" x="334.5" y="283.792">database: PostgresqlDatabase</text><line style="stroke:#181818;stroke-width:0.5;" x1="315.5" x2="558.5" y1="291.0938" y2="291.0938"/></g><!--class AI--><g id="elem_AI"><rect codeLine="23" fill="#F1F1F1" height="64.2969" id="AI" rx="2.5" ry="2.5" style="stroke:#181818;stroke-width:0.5;" width="262" x="369" y="408.2969"/><ellipse cx="384" cy="424.2969" fill="#ADD1B2" rx="11" ry="11" style="stroke:#181818;stroke-width:1.0;"/><path d="M382.7969,425.1719 L384.25,425.1719 L384.25,425.2813 C384.25,425.6875 384.2813,425.8438 384.3594,426 C384.5156,426.25 384.7969,426.4063 385.0938,426.4063 C385.3438,426.4063 385.6094,426.2656 385.7656,426.0469 C385.8906,425.8906 385.9219,425.7344 385.9219,425.2813 L385.9219,423.3594 C385.9219,423.2031 385.9219,423.1563 385.9063,423 C385.8438,422.5313 385.5313,422.2188 385.0781,422.2188 C384.8281,422.2188 384.5625,422.3594 384.3906,422.5781 C384.2813,422.75 384.25,422.9063 384.25,423.3594 L384.25,423.4844 L382.7969,423.4844 L382.7969,421.0781 L386.7813,421.0781 L386.7813,421.9375 C386.7813,422.3438 386.8125,422.5156 386.8906,422.6719 C387.0625,422.9219 387.3438,423.0781 387.625,423.0781 C387.8906,423.0781 388.1563,422.9375 388.3281,422.7188 C388.4375,422.5469 388.4688,422.4063 388.4688,421.9375 L388.4688,419.3906 L380.8438,419.3906 C380.4063,419.3906 380.2813,419.4063 380.125,419.5 C379.875,419.6563 379.7188,419.9531 379.7188,420.2344 C379.7188,420.5156 379.8594,420.7656 380.0781,420.9375 C380.2344,421.0469 380.4219,421.0781 380.8438,421.0781 L381.0938,421.0781 L381.0938,427.5938 L380.8438,427.5938 C380.4375,427.5938 380.2813,427.6094 380.125,427.7188 C379.875,427.8906 379.7188,428.1563 379.7188,428.4531 C379.7188,428.7188 379.8594,428.9688 380.0781,429.125 C380.2188,429.25 380.4531,429.2969 380.8438,429.2969 L388.8438,429.2969 L388.8438,426.7188 C388.8438,426.2813 388.8125,426.1406 388.7344,425.9844 C388.5625,425.7344 388.2813,425.5781 388,425.5781 C387.7344,425.5781 387.4688,425.6875 387.2969,425.9375 C387.1875,426.0938 387.1563,426.2344 387.1563,426.7188 L387.1563,427.5938 L382.7969,427.5938 L382.7969,425.1719 Z " fill="#000000"/><text fill="#000000" font-family="sans-serif" font-size="14" lengthAdjust="spacing" textLength="230" x="398" y="429.1436">&#1048;&#1089;&#1082;&#1091;&#1089;&#1089;&#1090;&#1074;&#1077;&#1085;&#1085;&#1099;&#1081; &#1048;&#1085;&#1090;&#1077;&#1083;&#1083;&#1077;&#1082;&#1090; (AI)</text><line style="stroke:#181818;stroke-width:0.5;" x1="370" x2="630" y1="440.2969" y2="440.2969"/><text fill="#000000" font-family="sans-serif" font-size="14" lengthAdjust="spacing" textLength="222" x="375" y="457.292">// &#1053;&#1077;&#1090; &#1082;&#1086;&#1085;&#1082;&#1088;&#1077;&#1090;&#1085;&#1099;&#1093; &#1072;&#1090;&#1088;&#1080;&#1073;&#1091;&#1090;&#1086;&#1074;</text><line style="stroke:#181818;stroke-width:0.5;" x1="370" x2="630" y1="464.5938" y2="464.5938"/></g><!--class UI--><g id="elem_UI"><rect codeLine="27" fill="#F1F1F1" height="80.5938" id="UI" rx="2.5" ry="2.5" style="stroke:#181818;stroke-width:0.5;" width="291" x="291.5" y="44.2969"/><ellipse cx="306.5" cy="60.2969" fill="#ADD1B2" rx="11" ry="11" style="stroke:#181818;stroke-width:1.0;"/><path d="M305.2969,61.1719 L306.75,61.1719 L306.75,61.2813 C306.75,61.6875 306.7813,61.8438 306.8594,62 C307.0156,62.25 307.2969,62.4063 307.5938,62.4063 C307.8438,62.4063 308.1094,62.2656 308.2656,62.0469 C308.3906,61.8906 308.4219,61.7344 308.4219,61.2813 L308.4219,59.3594 C308.4219,59.2031 308.4219,59.1563 308.4063,59 C308.3438,58.5313 308.0313,58.2188 307.5781,58.2188 C307.3281,58.2188 307.0625,58.3594 306.8906,58.5781 C306.7813,58.75 306.75,58.9063 306.75,59.3594 L306.75,59.4844 L305.2969,59.4844 L305.2969,57.0781 L309.2813,57.0781 L309.2813,57.9375 C309.2813,58.3438 309.3125,58.5156 309.3906,58.6719 C309.5625,58.9219 309.8438,59.0781 310.125,59.0781 C310.3906,59.0781 310.6563,58.9375 310.8281,58.7188 C310.9375,58.5469 310.9688,58.4063 310.9688,57.9375 L310.9688,55.3906 L303.3438,55.3906 C302.9063,55.3906 302.7813,55.4063 302.625,55.5 C302.375,55.6563 302.2188,55.9531 302.2188,56.2344 C302.2188,56.5156 302.3594,56.7656 302.5781,56.9375 C302.7344,57.0469 302.9219,57.0781 303.3438,57.0781 L303.5938,57.0781 L303.5938,63.5938 L303.3438,63.5938 C302.9375,63.5938 302.7813,63.6094 302.625,63.7188 C302.375,63.8906 302.2188,64.1563 302.2188,64.4531 C302.2188,64.7188 302.3594,64.9688 302.5781,65.125 C302.7188,65.25 302.9531,65.2969 303.3438,65.2969 L311.3438,65.2969 L311.3438,62.7188 C311.3438,62.2813 311.3125,62.1406 311.2344,61.9844 C311.0625,61.7344 310.7813,61.5781 310.5,61.5781 C310.2344,61.5781 309.9688,61.6875 309.7969,61.9375 C309.6875,62.0938 309.6563,62.2344 309.6563,62.7188 L309.6563,63.5938 L305.2969,63.5938 L305.2969,61.1719 Z " fill="#000000"/><text fill="#000000" font-family="sans-serif" font-size="14" lengthAdjust="spacing" textLength="259" x="320.5" y="65.1436">&#1055;&#1086;&#1083;&#1100;&#1079;&#1086;&#1074;&#1072;&#1090;&#1077;&#1083;&#1100;&#1089;&#1082;&#1080;&#1081; &#1048;&#1085;&#1090;&#1077;&#1088;&#1092;&#1077;&#1081;&#1089; (UI)</text><line style="stroke:#181818;stroke-width:0.5;" x1="292.5" x2="581.5" y1="76.2969" y2="76.2969"/><ellipse cx="302.5" cy="89.9453" fill="none" rx="3" ry="3" style="stroke:#038048;stroke-width:1.0;"/><text fill="#000000" font-family="sans-serif" font-size="14" lengthAdjust="spacing" textLength="110" x="311.5" y="93.292">theme: &#1089;&#1090;&#1088;&#1086;&#1082;&#1072;</text><ellipse cx="302.5" cy="106.2422" fill="none" rx="3" ry="3" style="stroke:#038048;stroke-width:1.0;"/><text fill="#000000" font-family="sans-serif" font-size="14" lengthAdjust="spacing" textLength="126" x="311.5" y="109.5889">language: &#1089;&#1090;&#1088;&#1086;&#1082;&#1072;</text><line style="stroke:#181818;stroke-width:0.5;" x1="292.5" x2="581.5" y1="116.8906" y2="116.8906"/></g><!--class PostgresqlDatabase--><g id="elem_PostgresqlDatabase"><rect codeLine="32" fill="#F1F1F1" height="64.2969" id="PostgresqlDatabase" rx="2.5" ry="2.5" style="stroke:#181818;stroke-width:0.5;" width="234" x="618" y="52.7969"/><ellipse cx="645.6" cy="68.7969" fill="#ADD1B2" rx="11" ry="11" style="stroke:#181818;stroke-width:1.0;"/><path d="M644.3969,69.6719 L645.85,69.6719 L645.85,69.7813 C645.85,70.1875 645.8813,70.3438 645.9594,70.5 C646.1156,70.75 646.3969,70.9063 646.6938,70.9063 C646.9438,70.9063 647.2094,70.7656 647.3656,70.5469 C647.4906,70.3906 647.5219,70.2344 647.5219,69.7813 L647.5219,67.8594 C647.5219,67.7031 647.5219,67.6563 647.5063,67.5 C647.4438,67.0313 647.1313,66.7188 646.6781,66.7188 C646.4281,66.7188 646.1625,66.8594 645.9906,67.0781 C645.8813,67.25 645.85,67.4063 645.85,67.8594 L645.85,67.9844 L644.3969,67.9844 L644.3969,65.5781 L648.3813,65.5781 L648.3813,66.4375 C648.3813,66.8438 648.4125,67.0156 648.4906,67.1719 C648.6625,67.4219 648.9438,67.5781 649.225,67.5781 C649.4906,67.5781 649.7563,67.4375 649.9281,67.2188 C650.0375,67.0469 650.0688,66.9063 650.0688,66.4375 L650.0688,63.8906 L642.4438,63.8906 C642.0063,63.8906 641.8813,63.9063 641.725,64 C641.475,64.1563 641.3188,64.4531 641.3188,64.7344 C641.3188,65.0156 641.4594,65.2656 641.6781,65.4375 C641.8344,65.5469 642.0219,65.5781 642.4438,65.5781 L642.6938,65.5781 L642.6938,72.0938 L642.4438,72.0938 C642.0375,72.0938 641.8813,72.1094 641.725,72.2188 C641.475,72.3906 641.3188,72.6563 641.3188,72.9531 C641.3188,73.2188 641.4594,73.4688 641.6781,73.625 C641.8188,73.75 642.0531,73.7969 642.4438,73.7969 L650.4438,73.7969 L650.4438,71.2188 C650.4438,70.7813 650.4125,70.6406 650.3344,70.4844 C650.1625,70.2344 649.8813,70.0781 649.6,70.0781 C649.3344,70.0781 649.0688,70.1875 648.8969,70.4375 C648.7875,70.5938 648.7563,70.7344 648.7563,71.2188 L648.7563,72.0938 L644.3969,72.0938 L644.3969,69.6719 Z " fill="#000000"/><text fill="#000000" font-family="sans-serif" font-size="14" lengthAdjust="spacing" textLength="174" x="662.4" y="73.6436">&#1041;&#1072;&#1079;&#1072; &#1044;&#1072;&#1085;&#1085;&#1099;&#1093; Postgresql</text><line style="stroke:#181818;stroke-width:0.5;" x1="619" x2="851" y1="84.7969" y2="84.7969"/><text fill="#000000" font-family="sans-serif" font-size="14" lengthAdjust="spacing" textLength="222" x="624" y="101.792">// &#1053;&#1077;&#1090; &#1082;&#1086;&#1085;&#1082;&#1088;&#1077;&#1090;&#1085;&#1099;&#1093; &#1072;&#1090;&#1088;&#1080;&#1073;&#1091;&#1090;&#1086;&#1074;</text><line style="stroke:#181818;stroke-width:0.5;" x1="619" x2="851" y1="109.0938" y2="109.0938"/></g><!--link Article to BaseParser--><g id="link_Article_BaseParser"><path codeLine="36" d="M143.737,331.6569 C166.104,357.7509 185.7475,380.67 204.0185,401.985 " fill="none" id="Article-to-BaseParser" style="stroke:#181818;stroke-width:1.0;"/><line style="stroke:#181818;stroke-width:1.0;" x1="204.0185" x2="213.7804" y1="401.985" y2="404.154"/><line style="stroke:#181818;stroke-width:1.0;" x1="204.0185" x2="204.6696" y1="401.985" y2="411.9637"/><line style="stroke:#181818;stroke-width:1.0;" x1="204.0185" x2="209.225" y1="401.985" y2="408.0589"/><line style="stroke:#181818;stroke-width:1.0;" x1="205.7538" x2="199.6799" y1="397.8632" y2="403.0697"/><text fill="#000000" font-family="sans-serif" font-size="13" lengthAdjust="spacing" textLength="58" x="181" y="374.3638">&#1042;&#1083;&#1072;&#1076;&#1077;&#1077;&#1090;</text></g><!--link Article to Parser--><g id="link_Article_Parser"><path codeLine="37" d="M68.8716,331.6709 C58.8396,372.1609 50.6468,425.5309 60,472.2969 C65.4177,499.3859 74.2342,521.0012 84.6328,542.0373 " fill="none" id="Article-to-Parser" style="stroke:#181818;stroke-width:1.0;"/><line style="stroke:#181818;stroke-width:1.0;" x1="84.6328" x2="93.5566" y1="542.0373" y2="546.5502"/><line style="stroke:#181818;stroke-width:1.0;" x1="84.6328" x2="82.7992" y1="542.0373" y2="551.8678"/><line style="stroke:#181818;stroke-width:1.0;" x1="84.6328" x2="88.1779" y1="542.0373" y2="549.209"/><line style="stroke:#181818;stroke-width:1.0;" x1="87.3323" x2="80.1607" y1="538.4719" y2="542.017"/><text fill="#000000" font-family="sans-serif" font-size="13" lengthAdjust="spacing" textLength="58" x="61" y="444.8638">&#1042;&#1083;&#1072;&#1076;&#1077;&#1077;&#1090;</text></g><!--link BaseParser to Parser--><g id="link_BaseParser_Parser"><path codeLine="38" d="M206.601,472.4909 C185.026,495.3839 161.3388,520.517 139.7878,543.3847 " fill="none" id="BaseParser-to-Parser" style="stroke:#181818;stroke-width:1.0;"/><line style="stroke:#181818;stroke-width:1.0;" x1="139.7878" x2="138.6675" y1="543.3847" y2="553.3217"/><line style="stroke:#181818;stroke-width:1.0;" x1="139.7878" x2="129.9345" y1="543.3847" y2="545.0916"/><line style="stroke:#181818;stroke-width:1.0;" x1="139.7878" x2="134.301" y1="543.3847" y2="549.2067"/><line style="stroke:#181818;stroke-width:1.0;" x1="144.0704" x2="138.2485" y1="544.6726" y2="539.1858"/><text fill="#000000" font-family="sans-serif" font-size="13" lengthAdjust="spacing" textLength="74" x="180" y="515.3638">&#1053;&#1072;&#1089;&#1083;&#1077;&#1076;&#1091;&#1077;&#1090;</text></g><!--link FlaskAPI to BaseParser--><g id="link_FlaskAPI_BaseParser"><path codeLine="39" d="M400.6,298.8539 C364.286,329.8389 314.8928,371.9833 278.5538,402.9883 " fill="none" id="FlaskAPI-to-BaseParser" style="stroke:#181818;stroke-width:1.0;"/><line style="stroke:#181818;stroke-width:1.0;" x1="278.5538" x2="276.3624" y1="402.9883" y2="412.7453"/><line style="stroke:#181818;stroke-width:1.0;" x1="278.5538" x2="268.5736" y1="402.9883" y2="403.6165"/><line style="stroke:#181818;stroke-width:1.0;" x1="278.5538" x2="272.468" y1="402.9883" y2="408.1809"/><line style="stroke:#181818;stroke-width:1.0;" x1="282.6716" x2="277.479" y1="404.7331" y2="398.6473"/><text fill="#000000" font-family="sans-serif" font-size="13" lengthAdjust="spacing" textLength="78" x="326" y="374.3638">&#1048;&#1089;&#1087;&#1086;&#1083;&#1100;&#1079;&#1091;&#1077;&#1090;</text></g><!--link FlaskAPI to AI--><g id="link_FlaskAPI_AI"><path codeLine="40" d="M448.409,298.8539 C459.791,329.8389 474.4214,369.6665 485.8114,400.6715 " fill="none" id="FlaskAPI-to-AI" style="stroke:#181818;stroke-width:1.0;"/><line style="stroke:#181818;stroke-width:1.0;" x1="485.8114" x2="494.202" y1="400.6715" y2="406.1119"/><line style="stroke:#181818;stroke-width:1.0;" x1="485.8114" x2="482.938" y1="400.6715" y2="410.2498"/><line style="stroke:#181818;stroke-width:1.0;" x1="485.8114" x2="488.57" y1="400.6715" y2="408.1809"/><line style="stroke:#181818;stroke-width:1.0;" x1="488.8764" x2="481.3671" y1="397.4149" y2="400.1735"/><text fill="#000000" font-family="sans-serif" font-size="13" lengthAdjust="spacing" textLength="78" x="476" y="374.3638">&#1048;&#1089;&#1087;&#1086;&#1083;&#1100;&#1079;&#1091;&#1077;&#1090;</text></g><!--link UI to FlaskAPI--><g id="link_UI_FlaskAPI"><path codeLine="42" d="M437,125.2989 C437,158.2079 437,196.4359 437,226.7429 " fill="none" id="UI-to-FlaskAPI" style="stroke:#181818;stroke-width:1.0;"/><line style="stroke:#181818;stroke-width:1.0;" x1="437" x2="443" y1="226.7429" y2="234.7429"/><line style="stroke:#181818;stroke-width:1.0;" x1="437" x2="431" y1="226.7429" y2="234.7429"/><line style="stroke:#181818;stroke-width:1.0;" x1="437" x2="437" y1="226.7429" y2="234.7429"/><line style="stroke:#181818;stroke-width:1.0;" x1="441" x2="433" y1="224.7429" y2="224.7429"/><text fill="#000000" font-family="sans-serif" font-size="13" lengthAdjust="spacing" textLength="118" x="438" y="168.3638">&#1042;&#1079;&#1072;&#1080;&#1084;&#1086;&#1076;&#1077;&#1081;&#1089;&#1090;&#1074;&#1091;&#1077;&#1090;</text></g><!--SRC=[fLDTIm9157ttLrnwAa9wzys8o9Vm8N_0L9D9fhKx4c71kdsy54JHWmGI_OFDbFBxBzpvHvsPNKrj8oWM5kVkcNFEFVUg2geeYPzuo0DzpMqUQLzVSC0zVSi33lGTyID_eF2cFRpxU0BARD6cF74J2LbI1NLA2_oYVO1zVQll5aYub7PKOGVCrGJHCYcZaY9T0yA3L9S3MnSLjLzsOZuSbLsruSYzc4_RvTrJb7ruxPgFjbWu57aPS-5yok8zxB-ZtjGtt25-XbzFrxYjFUjuLRWoAnnNEf5f4RRW6aeUyGVU8BNyfbNeTsRuvmd_GxPU5Ev1EfknHED3HBKhbDY6sHHbaLBUaUvnSIsgpHYgGwIhBw1XL9hG6638jlawVXZH7XwJeq-BwSnIEBbGPsM5k85UV4AGM0w0F7Cq3FgAxB0zBCOh17oJwbmMGxj1Dk-eGPoD8TpvCe30BatlkaQBkSX0RjoesfU7SLjJ5ALy1VF-TTQ1sTqWx1gUl-8Av_CjlRytFbxtPFAiEhr9AU87H1nm2rs2P1Ru4sYAO0xNW7pDpgo5Vwd1JfOZHhfkTosQH2mUm_u1byX5aCa5QnEXelS-mArmRcQpmYkV]--></g></svg>