<?xml version="1.0" encoding="us-ascii" standalone="no"?><svg xmlns="http://www.w3.org/2000/svg" xmlns:xlink="http://www.w3.org/1999/xlink" contentStyleType="text/css" height="735px" preserveAspectRatio="none" style="width:1737px;height:735px;background:#FFFFFF;" version="1.1" viewBox="0 0 1737 735" width="1737px" zoomAndPan="magnify"><defs/><g><text fill="#000000" font-family="sans-serif" font-size="14" font-weight="bold" lengthAdjust="spacing" textLength="363" x="685.5" y="27.9951">&#1044;&#1080;&#1072;&#1075;&#1088;&#1072;&#1084;&#1084;&#1072; &#1055;&#1086;&#1103;&#1089;&#1085;&#1080;&#1090;&#1077;&#1083;&#1100;&#1085;&#1086;&#1081; &#1052;&#1086;&#1076;&#1077;&#1083;&#1080; IT News</text><line style="stroke:#181818;stroke-width:0.5;stroke-dasharray:5.0,5.0;" x1="358" x2="358" y1="120.8906" y2="641.2813"/><line style="stroke:#181818;stroke-width:0.5;stroke-dasharray:5.0,5.0;" x1="543" x2="543" y1="120.8906" y2="641.2813"/><line style="stroke:#181818;stroke-width:0.5;stroke-dasharray:5.0,5.0;" x1="734" x2="734" y1="120.8906" y2="641.2813"/><line style="stroke:#181818;stroke-width:0.5;stroke-dasharray:5.0,5.0;" x1="980" x2="980" y1="120.8906" y2="641.2813"/><line style="stroke:#181818;stroke-width:0.5;stroke-dasharray:5.0,5.0;" x1="1162" x2="1162" y1="120.8906" y2="641.2813"/><line style="stroke:#181818;stroke-width:0.5;stroke-dasharray:5.0,5.0;" x1="1328" x2="1328" y1="120.8906" y2="641.2813"/><text fill="#000000" font-family="sans-serif" font-size="14" lengthAdjust="spacing" textLength="71" x="320" y="117.5889">&#1063;&#1080;&#1090;&#1072;&#1090;&#1077;&#1083;&#1100;</text><ellipse cx="358.5" cy="53.0938" fill="#E2E2F0" rx="8" ry="8" style="stroke:#181818;stroke-width:0.5;"/><path d="M358.5,61.0938 L358.5,88.0938 M345.5,69.0938 L371.5,69.0938 M358.5,88.0938 L345.5,103.0938 M358.5,88.0938 L371.5,103.0938 " fill="none" style="stroke:#181818;stroke-width:0.5;"/><text fill="#000000" font-family="sans-serif" font-size="14" lengthAdjust="spacing" textLength="71" x="320" y="653.2764">&#1063;&#1080;&#1090;&#1072;&#1090;&#1077;&#1083;&#1100;</text><ellipse cx="358.5" cy="665.0781" fill="#E2E2F0" rx="8" ry="8" style="stroke:#181818;stroke-width:0.5;"/><path d="M358.5,673.0781 L358.5,700.0781 M345.5,681.0781 L371.5,681.0781 M358.5,700.0781 L345.5,715.0781 M358.5,700.0781 L371.5,715.0781 " fill="none" style="stroke:#181818;stroke-width:0.5;"/><rect fill="#E2E2F0" height="30.2969" rx="2.5" ry="2.5" style="stroke:#181818;stroke-width:0.5;" width="87" x="500" y="89.5938"/><text fill="#000000" font-family="sans-serif" font-size="14" lengthAdjust="spacing" textLength="73" x="507" y="109.5889">UI (VUE.JS)</text><rect fill="#E2E2F0" height="30.2969" rx="2.5" ry="2.5" style="stroke:#181818;stroke-width:0.5;" width="87" x="500" y="640.2813"/><text fill="#000000" font-family="sans-serif" font-size="14" lengthAdjust="spacing" textLength="73" x="507" y="660.2764">UI (VUE.JS)</text><rect fill="#E2E2F0" height="30.2969" rx="2.5" ry="2.5" style="stroke:#181818;stroke-width:0.5;" width="153" x="658" y="89.5938"/><text fill="#000000" font-family="sans-serif" font-size="14" lengthAdjust="spacing" textLength="139" x="665" y="109.5889">BackEnd (Flask API)</text><rect fill="#E2E2F0" height="30.2969" rx="2.5" ry="2.5" style="stroke:#181818;stroke-width:0.5;" width="153" x="658" y="640.2813"/><text fill="#000000" font-family="sans-serif" font-size="14" lengthAdjust="spacing" textLength="139" x="665" y="660.2764">BackEnd (Flask API)</text><text fill="#000000" font-family="sans-serif" font-size="14" lengthAdjust="spacing" textLength="93" x="931" y="101.292">&#1041;&#1072;&#1079;&#1072; &#1076;&#1072;&#1085;&#1085;&#1099;&#1093;</text><text fill="#000000" font-family="sans-serif" font-size="14" lengthAdjust="spacing" textLength="76" x="939.5" y="117.5889">Postgresql</text><path d="M962.5,52.2969 C962.5,42.2969 980.5,42.2969 980.5,42.2969 C980.5,42.2969 998.5,42.2969 998.5,52.2969 L998.5,78.2969 C998.5,88.2969 980.5,88.2969 980.5,88.2969 C980.5,88.2969 962.5,88.2969 962.5,78.2969 L962.5,52.2969 " fill="#E2E2F0" style="stroke:#181818;stroke-width:1.5;"/><path d="M962.5,52.2969 C962.5,62.2969 980.5,62.2969 980.5,62.2969 C980.5,62.2969 998.5,62.2969 998.5,52.2969 " fill="none" style="stroke:#181818;stroke-width:1.5;"/><text fill="#000000" font-family="sans-serif" font-size="14" lengthAdjust="spacing" textLength="93" x="931" y="653.2764">&#1041;&#1072;&#1079;&#1072; &#1076;&#1072;&#1085;&#1085;&#1099;&#1093;</text><text fill="#000000" font-family="sans-serif" font-size="14" lengthAdjust="spacing" textLength="76" x="939.5" y="669.5732">Postgresql</text><path d="M962.5,682.875 C962.5,672.875 980.5,672.875 980.5,672.875 C980.5,672.875 998.5,672.875 998.5,682.875 L998.5,708.875 C998.5,718.875 980.5,718.875 980.5,718.875 C980.5,718.875 962.5,718.875 962.5,708.875 L962.5,682.875 " fill="#E2E2F0" style="stroke:#181818;stroke-width:1.5;"/><path d="M962.5,682.875 C962.5,692.875 980.5,692.875 980.5,692.875 C980.5,692.875 998.5,692.875 998.5,682.875 " fill="none" style="stroke:#181818;stroke-width:1.5;"/><rect fill="#E2E2F0" height="30.2969" rx="2.5" ry="2.5" style="stroke:#181818;stroke-width:0.5;" width="244" x="1040" y="89.5938"/><text fill="#000000" font-family="sans-serif" font-size="14" lengthAdjust="spacing" textLength="230" x="1047" y="109.5889">&#1048;&#1089;&#1082;&#1091;&#1089;&#1089;&#1090;&#1074;&#1077;&#1085;&#1085;&#1099;&#1081; &#1048;&#1085;&#1090;&#1077;&#1083;&#1083;&#1077;&#1082;&#1090; (AI)</text><rect fill="#E2E2F0" height="30.2969" rx="2.5" ry="2.5" style="stroke:#181818;stroke-width:0.5;" width="244" x="1040" y="640.2813"/><text fill="#000000" font-family="sans-serif" font-size="14" lengthAdjust="spacing" textLength="230" x="1047" y="660.2764">&#1048;&#1089;&#1082;&#1091;&#1089;&#1089;&#1090;&#1074;&#1077;&#1085;&#1085;&#1099;&#1081; &#1048;&#1085;&#1090;&#1077;&#1083;&#1083;&#1077;&#1082;&#1090; (AI)</text><rect fill="#E2E2F0" height="30.2969" rx="2.5" ry="2.5" style="stroke:#181818;stroke-width:0.5;" width="69" x="1294" y="89.5938"/><text fill="#000000" font-family="sans-serif" font-size="14" lengthAdjust="spacing" textLength="55" x="1301" y="109.5889">&#1055;&#1072;&#1088;&#1089;&#1077;&#1088;</text><rect fill="#E2E2F0" height="30.2969" rx="2.5" ry="2.5" style="stroke:#181818;stroke-width:0.5;" width="69" x="1294" y="640.2813"/><text fill="#000000" font-family="sans-serif" font-size="14" lengthAdjust="spacing" textLength="55" x="1301" y="660.2764">&#1055;&#1072;&#1088;&#1089;&#1077;&#1088;</text><polygon fill="#181818" points="531.5,148.0234,541.5,152.0234,531.5,156.0234,535.5,152.0234" style="stroke:#181818;stroke-width:1.0;"/><line style="stroke:#181818;stroke-width:1.0;" x1="358.5" x2="537.5" y1="152.0234" y2="152.0234"/><text fill="#000000" font-family="sans-serif" font-size="13" lengthAdjust="spacing" textLength="159" x="365.5" y="146.9575">(1) &#1047;&#1072;&#1087;&#1088;&#1072;&#1096;&#1080;&#1074;&#1072;&#1077;&#1090; &#1089;&#1090;&#1072;&#1090;&#1100;&#1080;</text><polygon fill="#181818" points="722.5,177.1563,732.5,181.1563,722.5,185.1563,726.5,181.1563" style="stroke:#181818;stroke-width:1.0;"/><line style="stroke:#181818;stroke-width:1.0;" x1="543.5" x2="728.5" y1="181.1563" y2="181.1563"/><text fill="#000000" font-family="sans-serif" font-size="13" lengthAdjust="spacing" textLength="167" x="550.5" y="176.0903">(2) &#1047;&#1072;&#1087;&#1088;&#1072;&#1096;&#1080;&#1074;&#1072;&#1077;&#1090; &#1076;&#1072;&#1085;&#1085;&#1099;&#1077;</text><polygon fill="#181818" points="968.5,206.2891,978.5,210.2891,968.5,214.2891,972.5,210.2891" style="stroke:#181818;stroke-width:1.0;"/><line style="stroke:#181818;stroke-width:1.0;" x1="734.5" x2="974.5" y1="210.2891" y2="210.2891"/><text fill="#000000" font-family="sans-serif" font-size="13" lengthAdjust="spacing" textLength="159" x="741.5" y="205.2231">(3) &#1047;&#1072;&#1087;&#1088;&#1072;&#1096;&#1080;&#1074;&#1072;&#1077;&#1090; &#1089;&#1090;&#1072;&#1090;&#1100;&#1080;</text><polygon fill="#181818" points="745.5,235.4219,735.5,239.4219,745.5,243.4219,741.5,239.4219" style="stroke:#181818;stroke-width:1.0;"/><line style="stroke:#181818;stroke-width:1.0;stroke-dasharray:2.0,2.0;" x1="739.5" x2="979.5" y1="239.4219" y2="239.4219"/><text fill="#000000" font-family="sans-serif" font-size="13" lengthAdjust="spacing" textLength="157" x="751.5" y="234.356">(4) &#1054;&#1090;&#1087;&#1088;&#1072;&#1074;&#1083;&#1103;&#1077;&#1090; &#1076;&#1072;&#1085;&#1085;&#1099;&#1077;</text><polygon fill="#181818" points="1150,264.5547,1160,268.5547,1150,272.5547,1154,268.5547" style="stroke:#181818;stroke-width:1.0;"/><line style="stroke:#181818;stroke-width:1.0;" x1="734.5" x2="1156" y1="268.5547" y2="268.5547"/><text fill="#000000" font-family="sans-serif" font-size="13" lengthAdjust="spacing" textLength="235" x="741.5" y="263.4888">(5) &#1047;&#1072;&#1087;&#1088;&#1072;&#1096;&#1080;&#1074;&#1072;&#1077;&#1090; &#1086;&#1073;&#1088;&#1072;&#1073;&#1086;&#1090;&#1082;&#1091; &#1089;&#1090;&#1072;&#1090;&#1077;&#1081;</text><polygon fill="#181818" points="745.5,293.6875,735.5,297.6875,745.5,301.6875,741.5,297.6875" style="stroke:#181818;stroke-width:1.0;"/><line style="stroke:#181818;stroke-width:1.0;stroke-dasharray:2.0,2.0;" x1="739.5" x2="1161" y1="297.6875" y2="297.6875"/><text fill="#000000" font-family="sans-serif" font-size="13" lengthAdjust="spacing" textLength="258" x="751.5" y="292.6216">(6) &#1054;&#1090;&#1087;&#1088;&#1072;&#1074;&#1083;&#1103;&#1077;&#1090; &#1086;&#1073;&#1088;&#1072;&#1073;&#1086;&#1090;&#1072;&#1085;&#1085;&#1099;&#1077; &#1076;&#1072;&#1085;&#1085;&#1099;&#1077;</text><polygon fill="#181818" points="1316.5,322.8203,1326.5,326.8203,1316.5,330.8203,1320.5,326.8203" style="stroke:#181818;stroke-width:1.0;"/><line style="stroke:#181818;stroke-width:1.0;" x1="734.5" x2="1322.5" y1="326.8203" y2="326.8203"/><text fill="#000000" font-family="sans-serif" font-size="13" lengthAdjust="spacing" textLength="218" x="741.5" y="321.7544">(7) &#1047;&#1072;&#1087;&#1088;&#1072;&#1096;&#1080;&#1074;&#1072;&#1077;&#1090; &#1087;&#1072;&#1088;&#1089;&#1080;&#1085;&#1075; &#1089;&#1090;&#1072;&#1090;&#1077;&#1081;</text><polygon fill="#181818" points="745.5,351.9531,735.5,355.9531,745.5,359.9531,741.5,355.9531" style="stroke:#181818;stroke-width:1.0;"/><line style="stroke:#181818;stroke-width:1.0;stroke-dasharray:2.0,2.0;" x1="739.5" x2="1327.5" y1="355.9531" y2="355.9531"/><text fill="#000000" font-family="sans-serif" font-size="13" lengthAdjust="spacing" textLength="241" x="751.5" y="350.8872">(8) &#1054;&#1090;&#1087;&#1088;&#1072;&#1074;&#1083;&#1103;&#1077;&#1090; &#1089;&#1087;&#1072;&#1088;&#1089;&#1077;&#1085;&#1085;&#1099;&#1077; &#1076;&#1072;&#1085;&#1085;&#1099;&#1077;</text><polygon fill="#181818" points="968.5,381.0859,978.5,385.0859,968.5,389.0859,972.5,385.0859" style="stroke:#181818;stroke-width:1.0;"/><line style="stroke:#181818;stroke-width:1.0;" x1="734.5" x2="974.5" y1="385.0859" y2="385.0859"/><text fill="#000000" font-family="sans-serif" font-size="13" lengthAdjust="spacing" textLength="187" x="741.5" y="380.02">(9) &#1057;&#1086;&#1093;&#1088;&#1072;&#1085;&#1103;&#1077;&#1090; &#1089;&#1090;&#1072;&#1090;&#1100;&#1080; &#1074; &#1073;&#1072;&#1079;&#1077;</text><polygon fill="#181818" points="745.5,410.2188,735.5,414.2188,745.5,418.2188,741.5,414.2188" style="stroke:#181818;stroke-width:1.0;"/><line style="stroke:#181818;stroke-width:1.0;stroke-dasharray:2.0,2.0;" x1="739.5" x2="979.5" y1="414.2188" y2="414.2188"/><text fill="#000000" font-family="sans-serif" font-size="13" lengthAdjust="spacing" textLength="222" x="751.5" y="409.1528">(10) &#1055;&#1086;&#1076;&#1090;&#1074;&#1077;&#1088;&#1078;&#1076;&#1077;&#1085;&#1080;&#1077; &#1089;&#1086;&#1093;&#1088;&#1072;&#1085;&#1077;&#1085;&#1080;&#1103;</text><polygon fill="#181818" points="554.5,439.3516,544.5,443.3516,554.5,447.3516,550.5,443.3516" style="stroke:#181818;stroke-width:1.0;"/><line style="stroke:#181818;stroke-width:1.0;stroke-dasharray:2.0,2.0;" x1="548.5" x2="733.5" y1="443.3516" y2="443.3516"/><text fill="#000000" font-family="sans-serif" font-size="13" lengthAdjust="spacing" textLength="159" x="560.5" y="438.2856">(11) &#1042;&#1086;&#1079;&#1074;&#1088;&#1072;&#1097;&#1072;&#1077;&#1090; &#1089;&#1090;&#1072;&#1090;&#1100;&#1080;</text><polygon fill="#181818" points="369.5,468.4844,359.5,472.4844,369.5,476.4844,365.5,472.4844" style="stroke:#181818;stroke-width:1.0;"/><line style="stroke:#181818;stroke-width:1.0;stroke-dasharray:2.0,2.0;" x1="363.5" x2="542.5" y1="472.4844" y2="472.4844"/><text fill="#000000" font-family="sans-serif" font-size="13" lengthAdjust="spacing" textLength="161" x="375.5" y="467.4185">(12) &#1054;&#1090;&#1086;&#1073;&#1088;&#1072;&#1078;&#1072;&#1077;&#1090; &#1089;&#1090;&#1072;&#1090;&#1100;&#1080;</text><path d="M5,485.4844 L5,525.4844 L354,525.4844 L354,495.4844 L344,485.4844 L5,485.4844 " fill="#FEFFDD" style="stroke:#181818;stroke-width:0.5;"/><path d="M344,485.4844 L344,495.4844 L354,495.4844 L344,485.4844 " fill="#FEFFDD" style="stroke:#181818;stroke-width:0.5;"/><text fill="#000000" font-family="sans-serif" font-size="13" lengthAdjust="spacing" textLength="328" x="11" y="502.5513">&#1063;&#1080;&#1090;&#1072;&#1090;&#1077;&#1083;&#1100; - &#1101;&#1090;&#1086; &#1082;&#1086;&#1085;&#1077;&#1095;&#1085;&#1099;&#1081; &#1087;&#1086;&#1083;&#1100;&#1079;&#1086;&#1074;&#1072;&#1090;&#1077;&#1083;&#1100;, &#1082;&#1086;&#1090;&#1086;&#1088;&#1099;&#1081;</text><text fill="#000000" font-family="sans-serif" font-size="13" lengthAdjust="spacing" textLength="153" x="11" y="517.6841">&#1087;&#1088;&#1086;&#1089;&#1084;&#1072;&#1090;&#1088;&#1080;&#1074;&#1072;&#1077;&#1090; &#1089;&#1090;&#1072;&#1090;&#1100;&#1080;.</text><path d="M1167,535.75 L1167,575.75 L1577,575.75 L1577,545.75 L1567,535.75 L1167,535.75 " fill="#FEFFDD" style="stroke:#181818;stroke-width:0.5;"/><path d="M1567,535.75 L1567,545.75 L1577,545.75 L1567,535.75 " fill="#FEFFDD" style="stroke:#181818;stroke-width:0.5;"/><text fill="#000000" font-family="sans-serif" font-size="13" lengthAdjust="spacing" textLength="389" x="1173" y="552.8169">&#1048;&#1089;&#1082;&#1091;&#1089;&#1089;&#1090;&#1074;&#1077;&#1085;&#1085;&#1099;&#1081; &#1048;&#1085;&#1090;&#1077;&#1083;&#1083;&#1077;&#1082;&#1090; &#1086;&#1073;&#1088;&#1072;&#1073;&#1072;&#1090;&#1099;&#1074;&#1072;&#1077;&#1090; &#1089;&#1090;&#1072;&#1090;&#1100;&#1080;, &#1089;&#1086;&#1079;&#1076;&#1072;&#1077;&#1090;</text><text fill="#000000" font-family="sans-serif" font-size="13" lengthAdjust="spacing" textLength="256" x="1173" y="567.9497">&#1082;&#1088;&#1072;&#1090;&#1082;&#1080;&#1077; &#1086;&#1073;&#1079;&#1086;&#1088;&#1099; &#1080; &#1082;&#1072;&#1090;&#1077;&#1075;&#1086;&#1088;&#1080;&#1079;&#1080;&#1088;&#1091;&#1077;&#1090; &#1080;&#1093;.</text><path d="M1333,586.0156 L1333,626.0156 L1730,626.0156 L1730,596.0156 L1720,586.0156 L1333,586.0156 " fill="#FEFFDD" style="stroke:#181818;stroke-width:0.5;"/><path d="M1720,586.0156 L1720,596.0156 L1730,596.0156 L1720,586.0156 " fill="#FEFFDD" style="stroke:#181818;stroke-width:0.5;"/><text fill="#000000" font-family="sans-serif" font-size="13" lengthAdjust="spacing" textLength="376" x="1339" y="603.0825">&#1055;&#1072;&#1088;&#1089;&#1077;&#1088; &#1086;&#1090;&#1074;&#1077;&#1090;&#1089;&#1090;&#1074;&#1077;&#1085;&#1077;&#1085; &#1079;&#1072; &#1089;&#1073;&#1086;&#1088; &#1076;&#1072;&#1085;&#1085;&#1099;&#1093; &#1080;&#1079; &#1074;&#1077;&#1073;-&#1088;&#1077;&#1089;&#1091;&#1088;&#1089;&#1086;&#1074; &#1080;</text><text fill="#000000" font-family="sans-serif" font-size="13" lengthAdjust="spacing" textLength="246" x="1339" y="618.2153">&#1087;&#1077;&#1088;&#1077;&#1076;&#1072;&#1095;&#1091; &#1076;&#1072;&#1085;&#1085;&#1099;&#1093; &#1074; &#1089;&#1077;&#1088;&#1074;&#1077;&#1088; Flask API.</text><!--SRC=[bLHBRn9X5DtFhxZf2fBIsFfsOOAn9hWmHCMLcn6cbPH0PIPnEuMGQgeX6XExC1fNRdbDcT82V-7x_f7dtdanfECZ4yhquvvppxcFpwax3OlK5-MhWHfh5tylyGn8_L0BtTT7QgvytL6Ukj0VyBvGvwI-uMl2HygdqdDwOhsr3SEiEgqsRQXV4Z-8C1jaslJKCcjMspWqsqwzMZyqcmvjL4gKUr7PtNhyB2ynbLBwzmTczM2tMQFSeuPf7r2nN0hYmdEZPZhcAzEsaF8JL4zPymGlSpNN9xhtibbksSv-sxBVD0JtC8nFPr6di3ZJNNs4fwD642q4RFCKB-82ZuUW3kMAeOZYcbXKQw1TK7dQbO2osRRXs0YSK-4-_D4zoctdINs5oYMNMhz3sKVupmEtv4VPK6RVG30WKGc0syd49QQLPqG8W2E_ZBx-RrbZI26T_0RWtn4dS40lTF-FgOjYzMQsv8KQ2jKGCzRXyiSwKEXp0_Wr1RUo5AIPOZMPqeA-CENjR7dBi9a-6CPfQI5-JTwT37dWYBYylqfRRTXT4Fw4fPuGpcEwf5caHWJNFFXUPkEsh-LbaTKac6smdSdcOgcX1BBY5C6XxYUAafdbeVqCbgaQIR7UPuqi8E70Csmdh4hKexEhO4QpvLZKiFOSQkr55mNH-ZL21T8VcOlK38IGgu-ZFLtYW6-dARv72MHJGXc31Y2GMRb12zY-bFnknY9i6HOAmC92UUtw_clHXxq7ot_T6IiZolGdLsRSb5x0mIJuaRFCfDPO3-aLqx13zaBS_bdeTCnd29cYOAxk1XFiwrwsYV1k8bgzjKXAnJFIMN653ydLYY1UCJTrnnAd9GaT5Y320x8hX0kUJbygBbFdCKmVOz7J-145sOFXfFYgJyJ_1W00]--></g></svg>