<?xml version="1.0" encoding="us-ascii" standalone="no"?><svg xmlns="http://www.w3.org/2000/svg" xmlns:xlink="http://www.w3.org/1999/xlink" contentStyleType="text/css" height="794px" preserveAspectRatio="none" style="width:1923px;height:794px;background:#FFFFFF;" version="1.1" viewBox="0 0 1923 794" width="1923px" zoomAndPan="magnify"><defs/><g><text fill="#000000" font-family="sans-serif" font-size="14" font-weight="bold" lengthAdjust="spacing" textLength="363" x="778.5" y="27.9951">&#1044;&#1080;&#1072;&#1075;&#1088;&#1072;&#1084;&#1084;&#1072; &#1055;&#1086;&#1103;&#1089;&#1085;&#1080;&#1090;&#1077;&#1083;&#1100;&#1085;&#1086;&#1081; &#1052;&#1086;&#1076;&#1077;&#1083;&#1080; IT News</text><line style="stroke:#181818;stroke-width:0.5;stroke-dasharray:5.0,5.0;" x1="358" x2="358" y1="120.8906" y2="699.5469"/><line style="stroke:#181818;stroke-width:0.5;stroke-dasharray:5.0,5.0;" x1="543" x2="543" y1="120.8906" y2="699.5469"/><line style="stroke:#181818;stroke-width:0.5;stroke-dasharray:5.0,5.0;" x1="742" x2="742" y1="120.8906" y2="699.5469"/><line style="stroke:#181818;stroke-width:0.5;stroke-dasharray:5.0,5.0;" x1="1166" x2="1166" y1="120.8906" y2="699.5469"/><line style="stroke:#181818;stroke-width:0.5;stroke-dasharray:5.0,5.0;" x1="1348" x2="1348" y1="120.8906" y2="699.5469"/><line style="stroke:#181818;stroke-width:0.5;stroke-dasharray:5.0,5.0;" x1="1514" x2="1514" y1="120.8906" y2="699.5469"/><text fill="#000000" font-family="sans-serif" font-size="14" lengthAdjust="spacing" textLength="71" x="320" y="117.5889">&#1063;&#1080;&#1090;&#1072;&#1090;&#1077;&#1083;&#1100;</text><ellipse cx="358.5" cy="53.0938" fill="#E2E2F0" rx="8" ry="8" style="stroke:#181818;stroke-width:0.5;"/><path d="M358.5,61.0938 L358.5,88.0938 M345.5,69.0938 L371.5,69.0938 M358.5,88.0938 L345.5,103.0938 M358.5,88.0938 L371.5,103.0938 " fill="none" style="stroke:#181818;stroke-width:0.5;"/><text fill="#000000" font-family="sans-serif" font-size="14" lengthAdjust="spacing" textLength="71" x="320" y="711.542">&#1063;&#1080;&#1090;&#1072;&#1090;&#1077;&#1083;&#1100;</text><ellipse cx="358.5" cy="723.3438" fill="#E2E2F0" rx="8" ry="8" style="stroke:#181818;stroke-width:0.5;"/><path d="M358.5,731.3438 L358.5,758.3438 M345.5,739.3438 L371.5,739.3438 M358.5,758.3438 L345.5,773.3438 M358.5,758.3438 L371.5,773.3438 " fill="none" style="stroke:#181818;stroke-width:0.5;"/><rect fill="#E2E2F0" height="30.2969" rx="2.5" ry="2.5" style="stroke:#181818;stroke-width:0.5;" width="87" x="500" y="89.5938"/><text fill="#000000" font-family="sans-serif" font-size="14" lengthAdjust="spacing" textLength="73" x="507" y="109.5889">UI (VUE.JS)</text><rect fill="#E2E2F0" height="30.2969" rx="2.5" ry="2.5" style="stroke:#181818;stroke-width:0.5;" width="87" x="500" y="698.5469"/><text fill="#000000" font-family="sans-serif" font-size="14" lengthAdjust="spacing" textLength="73" x="507" y="718.542">UI (VUE.JS)</text><rect fill="#E2E2F0" height="30.2969" rx="2.5" ry="2.5" style="stroke:#181818;stroke-width:0.5;" width="153" x="666" y="89.5938"/><text fill="#000000" font-family="sans-serif" font-size="14" lengthAdjust="spacing" textLength="139" x="673" y="109.5889">BackEnd (Flask API)</text><rect fill="#E2E2F0" height="30.2969" rx="2.5" ry="2.5" style="stroke:#181818;stroke-width:0.5;" width="153" x="666" y="698.5469"/><text fill="#000000" font-family="sans-serif" font-size="14" lengthAdjust="spacing" textLength="139" x="673" y="718.542">BackEnd (Flask API)</text><text fill="#000000" font-family="sans-serif" font-size="14" lengthAdjust="spacing" textLength="93" x="1117" y="101.292">&#1041;&#1072;&#1079;&#1072; &#1076;&#1072;&#1085;&#1085;&#1099;&#1093;</text><text fill="#000000" font-family="sans-serif" font-size="14" lengthAdjust="spacing" textLength="76" x="1125.5" y="117.5889">Postgresql</text><path d="M1148.5,52.2969 C1148.5,42.2969 1166.5,42.2969 1166.5,42.2969 C1166.5,42.2969 1184.5,42.2969 1184.5,52.2969 L1184.5,78.2969 C1184.5,88.2969 1166.5,88.2969 1166.5,88.2969 C1166.5,88.2969 1148.5,88.2969 1148.5,78.2969 L1148.5,52.2969 " fill="#E2E2F0" style="stroke:#181818;stroke-width:1.5;"/><path d="M1148.5,52.2969 C1148.5,62.2969 1166.5,62.2969 1166.5,62.2969 C1166.5,62.2969 1184.5,62.2969 1184.5,52.2969 " fill="none" style="stroke:#181818;stroke-width:1.5;"/><text fill="#000000" font-family="sans-serif" font-size="14" lengthAdjust="spacing" textLength="93" x="1117" y="711.542">&#1041;&#1072;&#1079;&#1072; &#1076;&#1072;&#1085;&#1085;&#1099;&#1093;</text><text fill="#000000" font-family="sans-serif" font-size="14" lengthAdjust="spacing" textLength="76" x="1125.5" y="727.8389">Postgresql</text><path d="M1148.5,741.1406 C1148.5,731.1406 1166.5,731.1406 1166.5,731.1406 C1166.5,731.1406 1184.5,731.1406 1184.5,741.1406 L1184.5,767.1406 C1184.5,777.1406 1166.5,777.1406 1166.5,777.1406 C1166.5,777.1406 1148.5,777.1406 1148.5,767.1406 L1148.5,741.1406 " fill="#E2E2F0" style="stroke:#181818;stroke-width:1.5;"/><path d="M1148.5,741.1406 C1148.5,751.1406 1166.5,751.1406 1166.5,751.1406 C1166.5,751.1406 1184.5,751.1406 1184.5,741.1406 " fill="none" style="stroke:#181818;stroke-width:1.5;"/><rect fill="#E2E2F0" height="30.2969" rx="2.5" ry="2.5" style="stroke:#181818;stroke-width:0.5;" width="244" x="1226" y="89.5938"/><text fill="#000000" font-family="sans-serif" font-size="14" lengthAdjust="spacing" textLength="230" x="1233" y="109.5889">&#1048;&#1089;&#1082;&#1091;&#1089;&#1089;&#1090;&#1074;&#1077;&#1085;&#1085;&#1099;&#1081; &#1048;&#1085;&#1090;&#1077;&#1083;&#1083;&#1077;&#1082;&#1090; (AI)</text><rect fill="#E2E2F0" height="30.2969" rx="2.5" ry="2.5" style="stroke:#181818;stroke-width:0.5;" width="244" x="1226" y="698.5469"/><text fill="#000000" font-family="sans-serif" font-size="14" lengthAdjust="spacing" textLength="230" x="1233" y="718.542">&#1048;&#1089;&#1082;&#1091;&#1089;&#1089;&#1090;&#1074;&#1077;&#1085;&#1085;&#1099;&#1081; &#1048;&#1085;&#1090;&#1077;&#1083;&#1083;&#1077;&#1082;&#1090; (AI)</text><rect fill="#E2E2F0" height="30.2969" rx="2.5" ry="2.5" style="stroke:#181818;stroke-width:0.5;" width="69" x="1480" y="89.5938"/><text fill="#000000" font-family="sans-serif" font-size="14" lengthAdjust="spacing" textLength="55" x="1487" y="109.5889">&#1055;&#1072;&#1088;&#1089;&#1077;&#1088;</text><rect fill="#E2E2F0" height="30.2969" rx="2.5" ry="2.5" style="stroke:#181818;stroke-width:0.5;" width="69" x="1480" y="698.5469"/><text fill="#000000" font-family="sans-serif" font-size="14" lengthAdjust="spacing" textLength="55" x="1487" y="718.542">&#1055;&#1072;&#1088;&#1089;&#1077;&#1088;</text><polygon fill="#181818" points="1502.5,148.0234,1512.5,152.0234,1502.5,156.0234,1506.5,152.0234" style="stroke:#181818;stroke-width:1.0;"/><line style="stroke:#181818;stroke-width:1.0;" x1="742.5" x2="1508.5" y1="152.0234" y2="152.0234"/><text fill="#000000" font-family="sans-serif" font-size="13" lengthAdjust="spacing" textLength="416" x="749.5" y="146.9575">(1) &#1047;&#1072;&#1087;&#1088;&#1072;&#1096;&#1080;&#1074;&#1072;&#1077;&#1090; &#1087;&#1072;&#1088;&#1089;&#1080;&#1085;&#1075; &#1089;&#1090;&#1072;&#1090;&#1077;&#1081; (&#1095;&#1077;&#1088;&#1077;&#1079; &#1086;&#1087;&#1088;&#1077;&#1076;&#1077;&#1083;&#1077;&#1085;&#1085;&#1086;&#1077; &#1074;&#1088;&#1077;&#1084;&#1103;)</text><polygon fill="#181818" points="753.5,177.1563,743.5,181.1563,753.5,185.1563,749.5,181.1563" style="stroke:#181818;stroke-width:1.0;"/><line style="stroke:#181818;stroke-width:1.0;stroke-dasharray:2.0,2.0;" x1="747.5" x2="1513.5" y1="181.1563" y2="181.1563"/><text fill="#000000" font-family="sans-serif" font-size="13" lengthAdjust="spacing" textLength="241" x="759.5" y="176.0903">(2) &#1054;&#1090;&#1087;&#1088;&#1072;&#1074;&#1083;&#1103;&#1077;&#1090; &#1089;&#1087;&#1072;&#1088;&#1089;&#1077;&#1085;&#1085;&#1099;&#1077; &#1076;&#1072;&#1085;&#1085;&#1099;&#1077;</text><polygon fill="#181818" points="1154.5,206.2891,1164.5,210.2891,1154.5,214.2891,1158.5,210.2891" style="stroke:#181818;stroke-width:1.0;"/><line style="stroke:#181818;stroke-width:1.0;" x1="742.5" x2="1160.5" y1="210.2891" y2="210.2891"/><text fill="#000000" font-family="sans-serif" font-size="13" lengthAdjust="spacing" textLength="187" x="749.5" y="205.2231">(3) &#1057;&#1086;&#1093;&#1088;&#1072;&#1085;&#1103;&#1077;&#1090; &#1089;&#1090;&#1072;&#1090;&#1100;&#1080; &#1074; &#1073;&#1072;&#1079;&#1077;</text><polygon fill="#181818" points="753.5,235.4219,743.5,239.4219,753.5,243.4219,749.5,239.4219" style="stroke:#181818;stroke-width:1.0;"/><line style="stroke:#181818;stroke-width:1.0;stroke-dasharray:2.0,2.0;" x1="747.5" x2="1165.5" y1="239.4219" y2="239.4219"/><text fill="#000000" font-family="sans-serif" font-size="13" lengthAdjust="spacing" textLength="214" x="759.5" y="234.356">(4) &#1055;&#1086;&#1076;&#1090;&#1074;&#1077;&#1088;&#1078;&#1076;&#1077;&#1085;&#1080;&#1077; &#1089;&#1086;&#1093;&#1088;&#1072;&#1085;&#1077;&#1085;&#1080;&#1103;</text><polygon fill="#181818" points="1336,264.5547,1346,268.5547,1336,272.5547,1340,268.5547" style="stroke:#181818;stroke-width:1.0;"/><line style="stroke:#181818;stroke-width:1.0;" x1="742.5" x2="1342" y1="268.5547" y2="268.5547"/><text fill="#000000" font-family="sans-serif" font-size="13" lengthAdjust="spacing" textLength="235" x="749.5" y="263.4888">(5) &#1047;&#1072;&#1087;&#1088;&#1072;&#1096;&#1080;&#1074;&#1072;&#1077;&#1090; &#1086;&#1073;&#1088;&#1072;&#1073;&#1086;&#1090;&#1082;&#1091; &#1089;&#1090;&#1072;&#1090;&#1077;&#1081;</text><polygon fill="#181818" points="753.5,293.6875,743.5,297.6875,753.5,301.6875,749.5,297.6875" style="stroke:#181818;stroke-width:1.0;"/><line style="stroke:#181818;stroke-width:1.0;stroke-dasharray:2.0,2.0;" x1="747.5" x2="1347" y1="297.6875" y2="297.6875"/><text fill="#000000" font-family="sans-serif" font-size="13" lengthAdjust="spacing" textLength="258" x="759.5" y="292.6216">(6) &#1054;&#1090;&#1087;&#1088;&#1072;&#1074;&#1083;&#1103;&#1077;&#1090; &#1086;&#1073;&#1088;&#1072;&#1073;&#1086;&#1090;&#1072;&#1085;&#1085;&#1099;&#1077; &#1076;&#1072;&#1085;&#1085;&#1099;&#1077;</text><polygon fill="#181818" points="1154.5,322.8203,1164.5,326.8203,1154.5,330.8203,1158.5,326.8203" style="stroke:#181818;stroke-width:1.0;"/><line style="stroke:#181818;stroke-width:1.0;" x1="742.5" x2="1160.5" y1="326.8203" y2="326.8203"/><text fill="#000000" font-family="sans-serif" font-size="13" lengthAdjust="spacing" textLength="400" x="749.5" y="321.7544">(7) &#1057;&#1086;&#1093;&#1088;&#1072;&#1085;&#1103;&#1077;&#1090; &#1076;&#1086;&#1087;&#1086;&#1083;&#1085;&#1080;&#1090;&#1077;&#1083;&#1100;&#1085;&#1091;&#1102; &#1080;&#1085;&#1092;&#1086;&#1088;&#1084;&#1072;&#1094;&#1080;&#1102; &#1089;&#1090;&#1072;&#1090;&#1100;&#1080; &#1074; &#1073;&#1072;&#1079;&#1077;</text><polygon fill="#181818" points="753.5,351.9531,743.5,355.9531,753.5,359.9531,749.5,355.9531" style="stroke:#181818;stroke-width:1.0;"/><line style="stroke:#181818;stroke-width:1.0;stroke-dasharray:2.0,2.0;" x1="747.5" x2="1165.5" y1="355.9531" y2="355.9531"/><text fill="#000000" font-family="sans-serif" font-size="13" lengthAdjust="spacing" textLength="214" x="759.5" y="350.8872">(8) &#1055;&#1086;&#1076;&#1090;&#1074;&#1077;&#1088;&#1078;&#1076;&#1077;&#1085;&#1080;&#1077; &#1089;&#1086;&#1093;&#1088;&#1072;&#1085;&#1077;&#1085;&#1080;&#1103;</text><polygon fill="#181818" points="531.5,381.0859,541.5,385.0859,531.5,389.0859,535.5,385.0859" style="stroke:#181818;stroke-width:1.0;"/><line style="stroke:#181818;stroke-width:1.0;" x1="358.5" x2="537.5" y1="385.0859" y2="385.0859"/><text fill="#000000" font-family="sans-serif" font-size="13" lengthAdjust="spacing" textLength="159" x="365.5" y="380.02">(9) &#1047;&#1072;&#1087;&#1088;&#1072;&#1096;&#1080;&#1074;&#1072;&#1077;&#1090; &#1089;&#1090;&#1072;&#1090;&#1100;&#1080;</text><polygon fill="#181818" points="730.5,410.2188,740.5,414.2188,730.5,418.2188,734.5,414.2188" style="stroke:#181818;stroke-width:1.0;"/><line style="stroke:#181818;stroke-width:1.0;" x1="543.5" x2="736.5" y1="414.2188" y2="414.2188"/><text fill="#000000" font-family="sans-serif" font-size="13" lengthAdjust="spacing" textLength="175" x="550.5" y="409.1528">(10) &#1047;&#1072;&#1087;&#1088;&#1072;&#1096;&#1080;&#1074;&#1072;&#1077;&#1090; &#1076;&#1072;&#1085;&#1085;&#1099;&#1077;</text><polygon fill="#181818" points="1154.5,439.3516,1164.5,443.3516,1154.5,447.3516,1158.5,443.3516" style="stroke:#181818;stroke-width:1.0;"/><line style="stroke:#181818;stroke-width:1.0;" x1="742.5" x2="1160.5" y1="443.3516" y2="443.3516"/><text fill="#000000" font-family="sans-serif" font-size="13" lengthAdjust="spacing" textLength="252" x="749.5" y="438.2856">(11) &#1047;&#1072;&#1087;&#1088;&#1072;&#1096;&#1080;&#1074;&#1072;&#1077;&#1090; &#1072;&#1082;&#1090;&#1091;&#1072;&#1083;&#1100;&#1085;&#1099;&#1077; &#1089;&#1090;&#1072;&#1090;&#1100;&#1080;</text><polygon fill="#181818" points="753.5,468.4844,743.5,472.4844,753.5,476.4844,749.5,472.4844" style="stroke:#181818;stroke-width:1.0;"/><line style="stroke:#181818;stroke-width:1.0;stroke-dasharray:2.0,2.0;" x1="747.5" x2="1165.5" y1="472.4844" y2="472.4844"/><text fill="#000000" font-family="sans-serif" font-size="13" lengthAdjust="spacing" textLength="165" x="759.5" y="467.4185">(12) &#1054;&#1090;&#1087;&#1088;&#1072;&#1074;&#1083;&#1103;&#1077;&#1090; &#1076;&#1072;&#1085;&#1085;&#1099;&#1077;</text><polygon fill="#181818" points="554.5,497.6172,544.5,501.6172,554.5,505.6172,550.5,501.6172" style="stroke:#181818;stroke-width:1.0;"/><line style="stroke:#181818;stroke-width:1.0;stroke-dasharray:2.0,2.0;" x1="548.5" x2="741.5" y1="501.6172" y2="501.6172"/><text fill="#000000" font-family="sans-serif" font-size="13" lengthAdjust="spacing" textLength="159" x="560.5" y="496.5513">(13) &#1042;&#1086;&#1079;&#1074;&#1088;&#1072;&#1097;&#1072;&#1077;&#1090; &#1089;&#1090;&#1072;&#1090;&#1100;&#1080;</text><polygon fill="#181818" points="369.5,526.75,359.5,530.75,369.5,534.75,365.5,530.75" style="stroke:#181818;stroke-width:1.0;"/><line style="stroke:#181818;stroke-width:1.0;stroke-dasharray:2.0,2.0;" x1="363.5" x2="542.5" y1="530.75" y2="530.75"/><text fill="#000000" font-family="sans-serif" font-size="13" lengthAdjust="spacing" textLength="161" x="375.5" y="525.6841">(14) &#1054;&#1090;&#1086;&#1073;&#1088;&#1072;&#1078;&#1072;&#1077;&#1090; &#1089;&#1090;&#1072;&#1090;&#1100;&#1080;</text><path d="M5,543.75 L5,583.75 L354,583.75 L354,553.75 L344,543.75 L5,543.75 " fill="#FEFFDD" style="stroke:#181818;stroke-width:0.5;"/><path d="M344,543.75 L344,553.75 L354,553.75 L344,543.75 " fill="#FEFFDD" style="stroke:#181818;stroke-width:0.5;"/><text fill="#000000" font-family="sans-serif" font-size="13" lengthAdjust="spacing" textLength="328" x="11" y="560.8169">&#1063;&#1080;&#1090;&#1072;&#1090;&#1077;&#1083;&#1100; - &#1101;&#1090;&#1086; &#1082;&#1086;&#1085;&#1077;&#1095;&#1085;&#1099;&#1081; &#1087;&#1086;&#1083;&#1100;&#1079;&#1086;&#1074;&#1072;&#1090;&#1077;&#1083;&#1100;, &#1082;&#1086;&#1090;&#1086;&#1088;&#1099;&#1081;</text><text fill="#000000" font-family="sans-serif" font-size="13" lengthAdjust="spacing" textLength="153" x="11" y="575.9497">&#1087;&#1088;&#1086;&#1089;&#1084;&#1072;&#1090;&#1088;&#1080;&#1074;&#1072;&#1077;&#1090; &#1089;&#1090;&#1072;&#1090;&#1100;&#1080;.</text><path d="M1353,594.0156 L1353,634.0156 L1763,634.0156 L1763,604.0156 L1753,594.0156 L1353,594.0156 " fill="#FEFFDD" style="stroke:#181818;stroke-width:0.5;"/><path d="M1753,594.0156 L1753,604.0156 L1763,604.0156 L1753,594.0156 " fill="#FEFFDD" style="stroke:#181818;stroke-width:0.5;"/><text fill="#000000" font-family="sans-serif" font-size="13" lengthAdjust="spacing" textLength="389" x="1359" y="611.0825">&#1048;&#1089;&#1082;&#1091;&#1089;&#1089;&#1090;&#1074;&#1077;&#1085;&#1085;&#1099;&#1081; &#1048;&#1085;&#1090;&#1077;&#1083;&#1083;&#1077;&#1082;&#1090; &#1086;&#1073;&#1088;&#1072;&#1073;&#1072;&#1090;&#1099;&#1074;&#1072;&#1077;&#1090; &#1089;&#1090;&#1072;&#1090;&#1100;&#1080;, &#1089;&#1086;&#1079;&#1076;&#1072;&#1077;&#1090;</text><text fill="#000000" font-family="sans-serif" font-size="13" lengthAdjust="spacing" textLength="256" x="1359" y="626.2153">&#1082;&#1088;&#1072;&#1090;&#1082;&#1080;&#1077; &#1086;&#1073;&#1079;&#1086;&#1088;&#1099; &#1080; &#1082;&#1072;&#1090;&#1077;&#1075;&#1086;&#1088;&#1080;&#1079;&#1080;&#1088;&#1091;&#1077;&#1090; &#1080;&#1093;.</text><path d="M1519,644.2813 L1519,684.2813 L1916,684.2813 L1916,654.2813 L1906,644.2813 L1519,644.2813 " fill="#FEFFDD" style="stroke:#181818;stroke-width:0.5;"/><path d="M1906,644.2813 L1906,654.2813 L1916,654.2813 L1906,644.2813 " fill="#FEFFDD" style="stroke:#181818;stroke-width:0.5;"/><text fill="#000000" font-family="sans-serif" font-size="13" lengthAdjust="spacing" textLength="376" x="1525" y="661.3481">&#1055;&#1072;&#1088;&#1089;&#1077;&#1088; &#1086;&#1090;&#1074;&#1077;&#1090;&#1089;&#1090;&#1074;&#1077;&#1085;&#1077;&#1085; &#1079;&#1072; &#1089;&#1073;&#1086;&#1088; &#1076;&#1072;&#1085;&#1085;&#1099;&#1093; &#1080;&#1079; &#1074;&#1077;&#1073;-&#1088;&#1077;&#1089;&#1091;&#1088;&#1089;&#1086;&#1074; &#1080;</text><text fill="#000000" font-family="sans-serif" font-size="13" lengthAdjust="spacing" textLength="246" x="1525" y="676.481">&#1087;&#1077;&#1088;&#1077;&#1076;&#1072;&#1095;&#1091; &#1076;&#1072;&#1085;&#1085;&#1099;&#1093; &#1074; &#1089;&#1077;&#1088;&#1074;&#1077;&#1088; Flask API.</text><!--SRC=[bLNBRjDG4DtxAqPT9L9J4IZF1L8GHGeBL05XnSQqReaQ9IMsn3PDA0KL6e6Gw0A1MB5rqhXnqoRzXNl_Y3FZwzIEOaHafNQlPywSEVEmL_Lg3gblAbI-Ej4j_Bt0vPFwfIQwg_VKM8MwhG9rhZ_XUQBEIFt0RS17AgJoSthYl7Kjozxm6arQKd_4tezzbiXswQbZRpfDQzTkUjMDwgvTzsYfKgRSYyhQokDdUR6fbDFl7zWREslrJSezgjdk3fNMov6TERSsRSz-PRiEGdu1wo5p7k1XhCRwKE-_hAytN6-xwRXlQkBtqDYdewXZf3ZI7Rs7gwtw82q0dEOn7YGBN06CsfGh6HAb6R9GozSjG0Mw9GRhTjD5nfOLfr6uRyxe7kMAULBVmVMI1TSV87uV_mM8e2uDK0WU9oIa8YtFAASF61_FGq85BkKngeEmnbb0gY_75xgRjqp00cB7D13yEeB_1AG4H-1ptPNG21e7ZqK84fAg89bBh2O3tW3WRtJBlW2Eft0HTRHD25QaUbAbm9gwpl1QpKlJgK5K1u2TIdPeG101gsc4w51tauHAPSQucItiHFN4kmUSDfSy9Qu5_na-jp9qca7o5zBgzboju8bwudUU7ZVqvH5nA-Xty6dnOEhtC3XQNDqxYwiRJIrdK15nxsQAcsHZmJWTkdWjkoh_8Ldn7zFYyrZg3kwHNeUIIu9CbXp5h2cOpsYgGP6R_Ijq7CgW-VfZbWHmCGAoswe95_VEwJmtgzxm7AevMnurjkAbIJIxKgb0-ZDZaHe140N3OZ0xIve8O4FS-rSkosBAFfXl638gPpv1uIyaVYkZd2kM0m6OcA7Nh6w_5dxOWK1PQ7ycHeVX3-T6N9PkH0Q3w2L76OdM65lfLeRX33aNuluVcKnFP4f2l0lnhXCLDDJxsKcOFKsKtE0aKl6Kj1DPuKVocO4HZtuhzRtXCSLQPjDUWLSmF3i2EE7n34LnixxXfW-mWDB-VOgYH-D9qy_U5Vc_]--></g></svg>
